<?xml version="1.0" encoding="utf-8"?>
<svg viewBox="0 0 288 288" style="enable-background:new 0 0 288 288;" xmlns="http://www.w3.org/2000/svg">
  <g>
    <rect x="0" style="fill-rule: evenodd; clip-rule: evenodd; fill: rgba(91, 161, 255, 0); fill-opacity: 0;" width="288" height="288"/>
    <g>
      <circle style="fill:#FF2A6E;" cx="96.441" cy="12.149" r="0.031"/>
      <path style="fill:#FF2A6E;" d="M107.504,12.21c0.034,0,0.061-0.028,0.061-0.061c0-0.034-0.027-0.061-0.061-0.061 c-0.034,0-0.061,0.028-0.061,0.061C107.443,12.183,107.47,12.21,107.504,12.21z"/>
      <path style="fill:#FF2A6E;" d="M118.568,12.21c0.034,0,0.061-0.028,0.061-0.061c0-0.034-0.027-0.061-0.061-0.061 c-0.034,0-0.061,0.028-0.061,0.061C118.506,12.183,118.534,12.21,118.568,12.21z"/>
      <circle style="fill:#FF2A6E;" cx="129.631" cy="12.149" r="0.092"/>
      <circle style="fill:#FF2A6E;" cx="140.695" cy="12.149" r="0.092"/>
      <circle style="fill:#FF2A6E;" cx="151.758" cy="12.149" r="0.092"/>
      <path style="fill:#FF2A6E;" d="M162.822,12.21c0.034,0,0.061-0.028,0.061-0.061c0-0.034-0.027-0.061-0.061-0.061 c-0.034,0-0.061,0.028-0.061,0.061C162.76,12.183,162.788,12.21,162.822,12.21z"/>
      <circle style="fill:#FF2A6E;" cx="173.885" cy="12.149" r="0.031"/>
      <circle style="fill:#FF2A6E;" cx="79.845" cy="23.212" r="0.031"/>
      <path style="fill:#FF2A6E;" d="M90.909,23.304c0.051,0,0.092-0.041,0.092-0.092s-0.041-0.092-0.092-0.092 c-0.051,0-0.092,0.041-0.092,0.092S90.858,23.304,90.909,23.304z"/>
      <circle style="fill:#FF2A6E;" cx="101.972" cy="23.212" r="0.153"/>
      <path style="fill:#FF2A6E;" d="M113.036,23.427c0.119,0,0.215-0.096,0.215-0.215c0-0.119-0.096-0.215-0.215-0.215 c-0.119,0-0.215,0.096-0.215,0.215C112.821,23.331,112.917,23.427,113.036,23.427z"/>
      <path style="fill:#FF2A6E;" d="M124.099,23.488c0.152,0,0.276-0.124,0.276-0.276s-0.124-0.276-0.276-0.276 c-0.153,0-0.276,0.124-0.276,0.276S123.947,23.488,124.099,23.488z"/>
      <path style="fill:#FF2A6E;" d="M135.163,23.519c0.169,0,0.307-0.137,0.307-0.307s-0.137-0.307-0.307-0.307 c-0.17,0-0.307,0.137-0.307,0.307S134.993,23.519,135.163,23.519z"/>
      <path style="fill:#FF2A6E;" d="M146.226,23.55c0.186,0,0.337-0.151,0.337-0.337s-0.151-0.337-0.337-0.337 c-0.186,0-0.337,0.151-0.337,0.337S146.04,23.55,146.226,23.55z"/>
      <path style="fill:#FF2A6E;" d="M157.29,23.519c0.17,0,0.307-0.137,0.307-0.307s-0.137-0.307-0.307-0.307 c-0.169,0-0.307,0.137-0.307,0.307S157.12,23.519,157.29,23.519z"/>
      <circle style="fill:#FF2A6E;" cx="168.353" cy="23.212" r="0.276"/>
      <path style="fill:#FF2A6E;" d="M179.417,23.427c0.119,0,0.215-0.096,0.215-0.215c0-0.119-0.096-0.215-0.215-0.215 c-0.119,0-0.215,0.096-0.215,0.215C179.202,23.331,179.298,23.427,179.417,23.427z"/>
      <circle style="fill:#FF2A6E;" cx="190.48" cy="23.212" r="0.123"/>
      <path style="fill:#FF2A6E;" d="M201.544,23.274c0.034,0,0.061-0.028,0.061-0.061s-0.027-0.061-0.061-0.061 c-0.034,0-0.061,0.028-0.061,0.061S201.51,23.274,201.544,23.274z"/>
      <circle style="fill:#FF2A6E;" cx="212.607" cy="23.212" r="0.031"/>
      <path style="fill:#FF2A6E;" d="M63.25,34.337c0.034,0,0.061-0.028,0.061-0.061s-0.028-0.061-0.061-0.061 c-0.034,0-0.061,0.028-0.061,0.061S63.216,34.337,63.25,34.337z"/>
      <path style="fill:#FF2A6E;" d="M74.314,34.46c0.102,0,0.184-0.082,0.184-0.184s-0.082-0.184-0.184-0.184 c-0.102,0-0.184,0.082-0.184,0.184S74.212,34.46,74.314,34.46z"/>
      <circle style="fill:#FF2A6E;" cx="85.377" cy="34.276" r="0.276"/>
      <circle style="fill:#FF2A6E;" cx="96.441" cy="34.276" r="0.399"/>
      <path style="fill:#FF2A6E;" d="M107.504,34.797c0.288,0,0.522-0.233,0.522-0.521c0-0.288-0.234-0.521-0.522-0.521 c-0.288,0-0.521,0.234-0.521,0.521C106.983,34.564,107.216,34.797,107.504,34.797z"/>
      <circle style="fill:#FF2A6E;" cx="118.568" cy="34.276" r="0.583"/>
      <path style="fill:#FF2A6E;" d="M129.631,34.92c0.356,0,0.644-0.288,0.644-0.644s-0.289-0.644-0.644-0.644 c-0.356,0-0.644,0.288-0.644,0.644S129.275,34.92,129.631,34.92z"/>
      <path style="fill:#FF2A6E;" d="M140.695,34.92c0.356,0,0.644-0.288,0.644-0.644s-0.288-0.644-0.644-0.644 c-0.356,0-0.644,0.288-0.644,0.644S140.339,34.92,140.695,34.92z"/>
      <circle style="fill:#FF2A6E;" cx="151.758" cy="34.276" r="0.614"/>
      <circle style="fill:#FF2A6E;" cx="162.822" cy="34.276" r="0.583"/>
      <path style="fill:#FF2A6E;" d="M173.885,34.767c0.271,0,0.491-0.22,0.491-0.491s-0.22-0.491-0.491-0.491s-0.491,0.22-0.491,0.491 S173.614,34.767,173.885,34.767z"/>
      <path style="fill:#FF2A6E;" d="M184.949,34.644c0.203,0,0.368-0.165,0.368-0.368s-0.165-0.368-0.368-0.368 c-0.203,0-0.368,0.165-0.368,0.368S184.745,34.644,184.949,34.644z"/>
      <path style="fill:#FF2A6E;" d="M196.012,34.521c0.135,0,0.245-0.11,0.245-0.245c0-0.136-0.11-0.245-0.245-0.245 c-0.136,0-0.245,0.11-0.245,0.245C195.767,34.411,195.876,34.521,196.012,34.521z"/>
      <circle style="fill:#FF2A6E;" cx="207.076" cy="34.276" r="0.123"/>
      <path style="fill:#FF2A6E;" d="M218.139,34.337c0.034,0,0.061-0.028,0.061-0.061s-0.027-0.061-0.061-0.061 s-0.061,0.028-0.061,0.061S218.105,34.337,218.139,34.337z"/>
      <circle style="fill:#FF2A6E;" cx="46.655" cy="45.339" r="0.031"/>
      <path style="fill:#FF2A6E;" d="M57.718,45.431c0.051,0,0.092-0.041,0.092-0.092s-0.041-0.092-0.092-0.092 s-0.092,0.041-0.092,0.092S57.668,45.431,57.718,45.431z"/>
      <path style="fill:#FF2A6E;" d="M68.782,45.585c0.135,0,0.245-0.11,0.245-0.245c0-0.136-0.11-0.245-0.245-0.245 c-0.136,0-0.245,0.11-0.245,0.245C68.536,45.475,68.646,45.585,68.782,45.585z"/>
      <circle style="fill:#FF2A6E;" cx="79.845" cy="45.339" r="0.399"/>
      <circle style="fill:#FF2A6E;" cx="90.909" cy="45.339" r="0.583"/>
      <circle style="fill:#FF2A6E;" cx="101.972" cy="45.339" r="0.736"/>
      <path style="fill:#FF2A6E;" d="M113.036,46.229c0.491,0,0.89-0.398,0.89-0.89c0-0.491-0.398-0.89-0.89-0.89 c-0.491,0-0.89,0.398-0.89,0.89C112.146,45.831,112.545,46.229,113.036,46.229z"/>
      <path style="fill:#FF2A6E;" d="M124.099,46.321c0.542,0,0.982-0.439,0.982-0.982c0-0.542-0.44-0.982-0.982-0.982 c-0.542,0-0.982,0.44-0.982,0.982C123.118,45.881,123.557,46.321,124.099,46.321z"/>
      <path style="fill:#FF2A6E;" d="M135.163,46.382c0.576,0,1.043-0.467,1.043-1.043s-0.467-1.043-1.043-1.043 c-0.576,0-1.043,0.467-1.043,1.043S134.587,46.382,135.163,46.382z"/>
      <path style="fill:#FF2A6E;" d="M146.226,46.382c0.576,0,1.043-0.467,1.043-1.043s-0.467-1.043-1.043-1.043 c-0.576,0-1.043,0.467-1.043,1.043S145.65,46.382,146.226,46.382z"/>
      <path style="fill:#FF2A6E;" d="M157.29,46.382c0.576,0,1.043-0.467,1.043-1.043s-0.467-1.043-1.043-1.043 c-0.576,0-1.043,0.467-1.043,1.043S156.714,46.382,157.29,46.382z"/>
      <path style="fill:#FF2A6E;" d="M168.353,46.29c0.525,0,0.951-0.426,0.951-0.951c0-0.525-0.426-0.951-0.951-0.951 c-0.525,0-0.951,0.426-0.951,0.951C167.402,45.864,167.828,46.29,168.353,46.29z"/>
      <path style="fill:#FF2A6E;" d="M179.417,46.167c0.458,0,0.828-0.371,0.828-0.828s-0.371-0.828-0.828-0.828 c-0.457,0-0.828,0.371-0.828,0.828S178.959,46.167,179.417,46.167z"/>
      <path style="fill:#FF2A6E;" d="M190.48,46.014c0.373,0,0.675-0.302,0.675-0.675c0-0.373-0.302-0.675-0.675-0.675 c-0.373,0-0.675,0.302-0.675,0.675C189.805,45.712,190.108,46.014,190.48,46.014z"/>
      <path style="fill:#FF2A6E;" d="M201.544,45.861c0.288,0,0.522-0.233,0.522-0.521c0-0.288-0.234-0.521-0.522-0.521 c-0.288,0-0.521,0.234-0.521,0.521C201.022,45.627,201.256,45.861,201.544,45.861z"/>
      <path style="fill:#FF2A6E;" d="M212.607,45.677c0.186,0,0.337-0.151,0.337-0.338c0-0.186-0.151-0.337-0.337-0.337 s-0.337,0.151-0.337,0.337C212.27,45.526,212.421,45.677,212.607,45.677z"/>
      <circle style="fill:#FF2A6E;" cx="223.671" cy="45.339" r="0.184"/>
      <path style="fill:#FF2A6E;" d="M234.734,45.401c0.034,0,0.061-0.027,0.061-0.061c0-0.034-0.027-0.061-0.061-0.061 s-0.061,0.028-0.061,0.061C234.673,45.373,234.7,45.401,234.734,45.401z"/>
      <path style="fill:#FF2A6E;" d="M41.123,56.495c0.051,0,0.092-0.041,0.092-0.092s-0.041-0.092-0.092-0.092 c-0.051,0-0.092,0.041-0.092,0.092S41.072,56.495,41.123,56.495z"/>
      <circle style="fill:#FF2A6E;" cx="52.187" cy="56.403" r="0.276"/>
      <circle style="fill:#FF2A6E;" cx="63.25" cy="56.403" r="0.46"/>
      <path style="fill:#FF2A6E;" d="M74.314,57.078c0.373,0,0.675-0.302,0.675-0.675c0-0.373-0.302-0.675-0.675-0.675 c-0.373,0-0.675,0.302-0.675,0.675C73.639,56.775,73.941,57.078,74.314,57.078z"/>
      <circle style="fill:#FF2A6E;" cx="85.377" cy="56.403" r="0.89"/>
      <circle style="fill:#FF2A6E;" cx="96.441" cy="56.403" r="1.135"/>
      <circle style="fill:#FF2A6E;" cx="107.504" cy="56.403" r="1.288"/>
      <circle style="fill:#FF2A6E;" cx="118.568" cy="56.403" r="1.442"/>
      <path style="fill:#FF2A6E;" d="M129.631,57.937c0.847,0,1.534-0.687,1.534-1.534c0-0.847-0.687-1.534-1.534-1.534 s-1.534,0.687-1.534,1.534C128.097,57.25,128.784,57.937,129.631,57.937z"/>
      <circle style="fill:#FF2A6E;" cx="140.695" cy="56.403" r="1.565"/>
      <path style="fill:#FF2A6E;" d="M151.758,57.937c0.847,0,1.534-0.687,1.534-1.534c0-0.847-0.687-1.534-1.534-1.534 s-1.534,0.687-1.534,1.534C150.224,57.25,150.911,57.937,151.758,57.937z"/>
      <circle style="fill:#FF2A6E;" cx="162.822" cy="56.403" r="1.411"/>
      <circle style="fill:#FF2A6E;" cx="173.885" cy="56.403" r="1.258"/>
      <circle style="fill:#FF2A6E;" cx="184.949" cy="56.403" r="1.043"/>
      <circle style="fill:#FF2A6E;" cx="196.012" cy="56.403" r="0.828"/>
      <path style="fill:#FF2A6E;" d="M207.076,57.016c0.339,0,0.613-0.275,0.613-0.614c0-0.339-0.275-0.614-0.613-0.614 c-0.339,0-0.614,0.275-0.614,0.614C206.462,56.742,206.737,57.016,207.076,57.016z"/>
      <path style="fill:#FF2A6E;" d="M218.139,56.801c0.22,0,0.399-0.179,0.399-0.399c0-0.22-0.179-0.399-0.399-0.399 c-0.22,0-0.399,0.179-0.399,0.399C217.74,56.623,217.919,56.801,218.139,56.801z"/>
      <path style="fill:#FF2A6E;" d="M229.203,56.617c0.119,0,0.215-0.096,0.215-0.215c0-0.119-0.096-0.215-0.215-0.215 c-0.119,0-0.215,0.096-0.215,0.215C228.988,56.521,229.084,56.617,229.203,56.617z"/>
      <path style="fill:#FF2A6E;" d="M240.266,56.464c0.034,0,0.061-0.027,0.061-0.061c0-0.034-0.027-0.061-0.061-0.061 c-0.034,0-0.061,0.028-0.061,0.061C240.205,56.437,240.232,56.464,240.266,56.464z"/>
      <path style="fill:#FF2A6E;" d="M35.591,67.527c0.034,0,0.061-0.027,0.061-0.061c0-0.034-0.027-0.061-0.061-0.061 s-0.061,0.027-0.061,0.061C35.53,67.5,35.557,67.527,35.591,67.527z"/>
      <circle style="fill:#FF2A6E;" cx="46.655" cy="67.466" r="0.245"/>
      <circle style="fill:#FF2A6E;" cx="57.718" cy="67.466" r="0.46"/>
      <circle style="fill:#FF2A6E;" cx="68.782" cy="67.466" r="0.706"/>
      <circle style="fill:#FF2A6E;" cx="79.845" cy="67.466" r="0.982"/>
      <circle style="fill:#FF2A6E;" cx="90.909" cy="67.466" r="1.288"/>
      <circle style="fill:#FF2A6E;" cx="101.972" cy="67.466" r="1.565"/>
      <path style="fill:#FF2A6E;" d="M113.036,69.276c1,0,1.81-0.81,1.81-1.81c0-1-0.81-1.81-1.81-1.81c-1,0-1.81,0.81-1.81,1.81 C111.226,68.466,112.036,69.276,113.036,69.276z"/>
      <path style="fill:#FF2A6E;" d="M124.099,69.43c1.084,0,1.963-0.879,1.963-1.963c0-1.084-0.879-1.964-1.963-1.964 c-1.084,0-1.964,0.879-1.964,1.964C122.136,68.551,123.015,69.43,124.099,69.43z"/>
      <path style="fill:#FF2A6E;" d="M135.163,69.552c1.152,0,2.086-0.934,2.086-2.086c0-1.152-0.934-2.086-2.086-2.086 c-1.152,0-2.086,0.934-2.086,2.086C133.077,68.618,134.011,69.552,135.163,69.552z"/>
      <path style="fill:#FF2A6E;" d="M146.226,69.583c1.169,0,2.117-0.948,2.117-2.117c0-1.169-0.948-2.117-2.117-2.117 c-1.169,0-2.117,0.948-2.117,2.117C144.109,68.635,145.057,69.583,146.226,69.583z"/>
      <path style="fill:#FF2A6E;" d="M157.29,69.522c1.135,0,2.056-0.92,2.056-2.055s-0.92-2.056-2.056-2.056 c-1.135,0-2.055,0.92-2.055,2.056S156.155,69.522,157.29,69.522z"/>
      <path style="fill:#FF2A6E;" d="M168.353,69.399c1.068,0,1.933-0.865,1.933-1.933c0-1.068-0.865-1.933-1.933-1.933 c-1.067,0-1.933,0.865-1.933,1.933C166.421,68.534,167.286,69.399,168.353,69.399z"/>
      <circle style="fill:#FF2A6E;" cx="179.417" cy="67.466" r="1.718"/>
      <path style="fill:#FF2A6E;" d="M190.48,68.939c0.813,0,1.473-0.659,1.473-1.473s-0.659-1.473-1.473-1.473 s-1.473,0.659-1.473,1.473S189.667,68.939,190.48,68.939z"/>
      <path style="fill:#FF2A6E;" d="M201.544,68.663c0.661,0,1.197-0.536,1.197-1.196c0-0.661-0.536-1.197-1.197-1.197 c-0.661,0-1.196,0.536-1.196,1.197C200.347,68.127,200.883,68.663,201.544,68.663z"/>
      <circle style="fill:#FF2A6E;" cx="212.607" cy="67.466" r="0.89"/>
      <circle style="fill:#FF2A6E;" cx="223.671" cy="67.466" r="0.614"/>
      <path style="fill:#FF2A6E;" d="M234.734,67.834c0.203,0,0.368-0.165,0.368-0.368s-0.165-0.368-0.368-0.368 c-0.203,0-0.368,0.165-0.368,0.368S234.531,67.834,234.734,67.834z"/>
      <circle style="fill:#FF2A6E;" cx="245.798" cy="67.466" r="0.184"/>
      <circle style="fill:#FF2A6E;" cx="256.861" cy="67.466" r="0.031"/>
      <path style="fill:#FF2A6E;" d="M18.996,78.56c0.017,0,0.031-0.014,0.031-0.031c0-0.017-0.014-0.031-0.031-0.031 c-0.017,0-0.031,0.014-0.031,0.031C18.965,78.547,18.979,78.56,18.996,78.56z"/>
      <path style="fill:#FF2A6E;" d="M30.06,78.714c0.102,0,0.184-0.082,0.184-0.184c0-0.102-0.082-0.184-0.184-0.184 c-0.102,0-0.184,0.082-0.184,0.184C29.876,78.631,29.958,78.714,30.06,78.714z"/>
      <path style="fill:#FF2A6E;" d="M41.123,78.928c0.22,0,0.399-0.179,0.399-0.399c0-0.22-0.179-0.399-0.399-0.399 c-0.22,0-0.399,0.179-0.399,0.399C40.724,78.75,40.903,78.928,41.123,78.928z"/>
      <path style="fill:#FF2A6E;" d="M52.187,79.205c0.373,0,0.675-0.302,0.675-0.675c0-0.373-0.302-0.675-0.675-0.675 c-0.373,0-0.675,0.302-0.675,0.675C51.512,78.902,51.814,79.205,52.187,79.205z"/>
      <circle style="fill:#FF2A6E;" cx="63.25" cy="78.53" r="0.982"/>
      <path style="fill:#FF2A6E;" d="M74.314,79.88c0.745,0,1.35-0.604,1.35-1.35s-0.604-1.35-1.35-1.35s-1.35,0.604-1.35,1.35 S73.568,79.88,74.314,79.88z"/>
      <path style="fill:#FF2A6E;" d="M85.377,80.217c0.932,0,1.687-0.755,1.687-1.687s-0.756-1.687-1.687-1.687 s-1.687,0.756-1.687,1.687S84.445,80.217,85.377,80.217z"/>
      <circle style="fill:#FF2A6E;" cx="96.441" cy="78.53" r="2.025"/>
      <circle style="fill:#FF2A6E;" cx="107.504" cy="78.53" r="2.332"/>
      <circle style="fill:#FF2A6E;" cx="118.568" cy="78.53" r="2.608"/>
      <circle style="fill:#FF2A6E;" cx="129.631" cy="78.53" r="2.73"/>
      <circle style="fill:#FF2A6E;" cx="140.695" cy="78.53" r="2.761"/>
      <path style="fill:#FF2A6E;" d="M151.758,81.229c1.491,0,2.7-1.209,2.7-2.7c0-1.491-1.209-2.7-2.7-2.7s-2.7,1.209-2.7,2.7 C149.058,80.021,150.267,81.229,151.758,81.229z"/>
      <path style="fill:#FF2A6E;" d="M162.822,81.045c1.389,0,2.516-1.126,2.516-2.516c0-1.389-1.126-2.516-2.516-2.516 c-1.389,0-2.516,1.126-2.516,2.516C160.306,79.919,161.432,81.045,162.822,81.045z"/>
      <path style="fill:#FF2A6E;" d="M173.885,80.769c1.237,0,2.24-1.003,2.24-2.24c0-1.237-1.003-2.24-2.24-2.24 c-1.237,0-2.24,1.003-2.24,2.24C171.645,79.767,172.648,80.769,173.885,80.769z"/>
      <path style="fill:#FF2A6E;" d="M184.949,80.462c1.067,0,1.933-0.865,1.933-1.933c0-1.068-0.865-1.933-1.933-1.933 c-1.067,0-1.933,0.865-1.933,1.933C183.016,79.597,183.881,80.462,184.949,80.462z"/>
      <circle style="fill:#FF2A6E;" cx="196.012" cy="78.53" r="1.565"/>
      <path style="fill:#FF2A6E;" d="M207.076,79.757c0.678,0,1.227-0.549,1.227-1.227c0-0.678-0.549-1.227-1.227-1.227 c-0.678,0-1.227,0.549-1.227,1.227C205.848,79.207,206.398,79.757,207.076,79.757z"/>
      <circle style="fill:#FF2A6E;" cx="218.139" cy="78.53" r="0.89"/>
      <circle style="fill:#FF2A6E;" cx="229.203" cy="78.53" r="0.583"/>
      <path style="fill:#FF2A6E;" d="M240.266,78.837c0.169,0,0.307-0.137,0.307-0.307c0-0.17-0.137-0.307-0.307-0.307 c-0.169,0-0.307,0.137-0.307,0.307C239.959,78.699,240.097,78.837,240.266,78.837z"/>
      <path style="fill:#FF2A6E;" d="M251.33,78.652c0.068,0,0.123-0.055,0.123-0.123c0-0.068-0.055-0.123-0.123-0.123 c-0.068,0-0.123,0.055-0.123,0.123C251.207,78.597,251.262,78.652,251.33,78.652z"/>
      <path style="fill:#FF2A6E;" d="M24.528,89.685c0.051,0,0.092-0.041,0.092-0.092c0-0.051-0.041-0.092-0.092-0.092 c-0.051,0-0.092,0.041-0.092,0.092C24.436,89.644,24.477,89.685,24.528,89.685z"/>
      <circle style="fill:#FF2A6E;" cx="35.591" cy="89.593" r="0.276"/>
      <circle style="fill:#FF2A6E;" cx="46.655" cy="89.593" r="0.583"/>
      <circle style="fill:#FF2A6E;" cx="57.718" cy="89.593" r="0.89"/>
      <circle style="fill:#FF2A6E;" cx="68.782" cy="89.593" r="1.288"/>
      <path style="fill:#FF2A6E;" d="M79.845,91.281c0.932,0,1.687-0.755,1.687-1.687s-0.755-1.687-1.687-1.687 s-1.687,0.756-1.687,1.687S78.913,91.281,79.845,91.281z"/>
      <path style="fill:#FF2A6E;" d="M90.909,91.71c1.169,0,2.117-0.948,2.117-2.117s-0.948-2.117-2.117-2.117 c-1.169,0-2.117,0.948-2.117,2.117S89.74,91.71,90.909,91.71z"/>
      <path style="fill:#FF2A6E;" d="M101.972,92.14c1.406,0,2.546-1.14,2.546-2.546c0-1.406-1.14-2.546-2.546-2.546 c-1.406,0-2.546,1.14-2.546,2.546C99.426,90.999,100.566,92.14,101.972,92.14z"/>
      <path style="fill:#FF2A6E;" d="M113.036,92.538c1.627,0,2.945-1.319,2.945-2.945c0-1.627-1.319-2.945-2.945-2.945 c-1.627,0-2.945,1.319-2.945,2.945C110.091,91.22,111.409,92.538,113.036,92.538z"/>
      <path style="fill:#FF2A6E;" d="M124.099,92.814c1.779,0,3.221-1.442,3.221-3.221c0-1.779-1.442-3.221-3.221-3.221 c-1.779,0-3.221,1.442-3.221,3.221C120.878,91.372,122.32,92.814,124.099,92.814z"/>
      <path style="fill:#FF2A6E;" d="M135.163,93.06c1.915,0,3.467-1.552,3.467-3.467c0-1.915-1.552-3.467-3.467-3.467 c-1.915,0-3.467,1.552-3.467,3.467C131.696,91.508,133.248,93.06,135.163,93.06z"/>
      <path style="fill:#FF2A6E;" d="M146.226,93.09c1.932,0,3.497-1.566,3.497-3.497c0-1.932-1.566-3.497-3.497-3.497 c-1.932,0-3.497,1.566-3.497,3.497C142.729,91.525,144.295,93.09,146.226,93.09z"/>
      <path style="fill:#FF2A6E;" d="M157.29,92.968c1.864,0,3.375-1.511,3.375-3.375c0-1.864-1.511-3.375-3.375-3.375 c-1.864,0-3.375,1.511-3.375,3.375C153.915,91.457,155.426,92.968,157.29,92.968z"/>
      <circle style="fill:#FF2A6E;" cx="168.353" cy="89.593" r="3.16"/>
      <path style="fill:#FF2A6E;" d="M179.417,92.385c1.542,0,2.792-1.25,2.792-2.792c0-1.542-1.25-2.792-2.792-2.792 c-1.542,0-2.792,1.25-2.792,2.792C176.625,91.135,177.875,92.385,179.417,92.385z"/>
      <path style="fill:#FF2A6E;" d="M190.48,91.986c1.322,0,2.393-1.071,2.393-2.393s-1.071-2.393-2.393-2.393 s-2.393,1.071-2.393,2.393S189.159,91.986,190.48,91.986z"/>
      <path style="fill:#FF2A6E;" d="M201.544,91.557c1.084,0,1.964-0.879,1.964-1.963c0-1.084-0.879-1.964-1.964-1.964 c-1.084,0-1.963,0.879-1.963,1.964C199.58,90.677,200.459,91.557,201.544,91.557z"/>
      <circle style="fill:#FF2A6E;" cx="212.607" cy="89.593" r="1.565"/>
      <circle style="fill:#FF2A6E;" cx="223.671" cy="89.593" r="1.135"/>
      <path style="fill:#FF2A6E;" d="M234.734,90.36c0.424,0,0.767-0.343,0.767-0.767s-0.343-0.767-0.767-0.767 s-0.767,0.343-0.767,0.767S234.311,90.36,234.734,90.36z"/>
      <circle style="fill:#FF2A6E;" cx="245.798" cy="89.593" r="0.46"/>
      <path style="fill:#FF2A6E;" d="M256.861,89.808c0.119,0,0.215-0.096,0.215-0.215s-0.096-0.215-0.215-0.215 s-0.215,0.096-0.215,0.215S256.743,89.808,256.861,89.808z"/>
      <path style="fill:#FF2A6E;" d="M267.925,89.655c0.034,0,0.061-0.027,0.061-0.061s-0.027-0.061-0.061-0.061 s-0.061,0.028-0.061,0.061S267.891,89.655,267.925,89.655z"/>
      <path style="fill:#FF2A6E;" d="M7.933,100.687c0.017,0,0.031-0.014,0.031-0.031c0-0.017-0.014-0.031-0.031-0.031 c-0.017,0-0.031,0.014-0.031,0.031C7.902,100.674,7.916,100.687,7.933,100.687z"/>
      <path style="fill:#FF2A6E;" d="M18.996,100.81c0.085,0,0.153-0.069,0.153-0.153s-0.069-0.153-0.153-0.153 c-0.085,0-0.153,0.069-0.153,0.153S18.911,100.81,18.996,100.81z"/>
      <path style="fill:#FF2A6E;" d="M30.06,101.055c0.22,0,0.399-0.179,0.399-0.399c0-0.22-0.179-0.399-0.399-0.399 c-0.22,0-0.399,0.179-0.399,0.399C29.661,100.877,29.839,101.055,30.06,101.055z"/>
      <path style="fill:#FF2A6E;" d="M41.123,101.393c0.407,0,0.736-0.33,0.736-0.736c0-0.407-0.33-0.736-0.736-0.736 c-0.407,0-0.736,0.33-0.736,0.736C40.387,101.063,40.716,101.393,41.123,101.393z"/>
      <circle style="fill:#FF2A6E;" cx="52.187" cy="100.657" r="1.135"/>
      <circle style="fill:#FF2A6E;" cx="63.25" cy="100.657" r="1.565"/>
      <circle style="fill:#FF2A6E;" cx="74.314" cy="100.657" r="2.025"/>
      <path style="fill:#FF2A6E;" d="M85.377,103.203c1.406,0,2.546-1.14,2.546-2.546s-1.14-2.546-2.546-2.546 c-1.406,0-2.546,1.14-2.546,2.546S83.971,103.203,85.377,103.203z"/>
      <circle style="fill:#FF2A6E;" cx="96.441" cy="100.657" r="3.037"/>
      <path style="fill:#FF2A6E;" d="M107.504,104.185c1.949,0,3.528-1.579,3.528-3.528s-1.58-3.528-3.528-3.528 c-1.948,0-3.528,1.58-3.528,3.528S105.556,104.185,107.504,104.185z"/>
      <path style="fill:#FF2A6E;" d="M118.568,104.614c2.186,0,3.958-1.772,3.958-3.957s-1.772-3.958-3.958-3.958 c-2.186,0-3.957,1.772-3.957,3.958S116.382,104.614,118.568,104.614z"/>
      <circle style="fill:#FF2A6E;" cx="129.631" cy="100.657" r="4.203"/>
      <path style="fill:#FF2A6E;" d="M140.695,104.921c2.355,0,4.264-1.909,4.264-4.264c0-2.355-1.909-4.264-4.264-4.264 s-4.264,1.909-4.264,4.264C136.43,103.012,138.339,104.921,140.695,104.921z"/>
      <path style="fill:#FF2A6E;" d="M151.758,104.768c2.27,0,4.111-1.84,4.111-4.111s-1.84-4.111-4.111-4.111s-4.111,1.841-4.111,4.111 S149.488,104.768,151.758,104.768z"/>
      <path style="fill:#FF2A6E;" d="M162.822,104.492c2.118,0,3.835-1.717,3.835-3.835c0-2.118-1.717-3.835-3.835-3.835 c-2.118,0-3.835,1.717-3.835,3.835C158.987,102.775,160.704,104.492,162.822,104.492z"/>
      <path style="fill:#FF2A6E;" d="M173.885,104.031c1.864,0,3.375-1.511,3.375-3.375c0-1.864-1.511-3.375-3.375-3.375 s-3.375,1.511-3.375,3.375C170.51,102.52,172.021,104.031,173.885,104.031z"/>
      <path style="fill:#FF2A6E;" d="M184.949,103.571c1.61,0,2.915-1.305,2.915-2.914c0-1.61-1.305-2.914-2.915-2.914 c-1.61,0-2.914,1.305-2.914,2.914C182.034,102.266,183.339,103.571,184.949,103.571z"/>
      <path style="fill:#FF2A6E;" d="M196.012,103.019c1.305,0,2.362-1.058,2.362-2.362c0-1.305-1.058-2.362-2.362-2.362 c-1.305,0-2.362,1.058-2.362,2.362C193.65,101.961,194.707,103.019,196.012,103.019z"/>
      <path style="fill:#FF2A6E;" d="M207.076,102.559c1.05,0,1.902-0.852,1.902-1.902s-0.852-1.902-1.902-1.902 c-1.051,0-1.902,0.852-1.902,1.902S206.025,102.559,207.076,102.559z"/>
      <path style="fill:#FF2A6E;" d="M218.139,102.068c0.779,0,1.411-0.632,1.411-1.411c0-0.779-0.632-1.411-1.411-1.411 s-1.411,0.632-1.411,1.411C216.728,101.436,217.36,102.068,218.139,102.068z"/>
      <path style="fill:#FF2A6E;" d="M229.203,101.638c0.542,0,0.982-0.439,0.982-0.982s-0.439-0.982-0.982-0.982 c-0.542,0-0.982,0.44-0.982,0.982S228.66,101.638,229.203,101.638z"/>
      <path style="fill:#FF2A6E;" d="M240.266,101.27c0.339,0,0.613-0.275,0.613-0.614c0-0.339-0.275-0.614-0.613-0.614 c-0.339,0-0.614,0.275-0.614,0.614C239.652,100.995,239.927,101.27,240.266,101.27z"/>
      <path style="fill:#FF2A6E;" d="M251.33,100.964c0.169,0,0.307-0.137,0.307-0.307c0-0.17-0.137-0.307-0.307-0.307 c-0.17,0-0.307,0.137-0.307,0.307C251.023,100.826,251.16,100.964,251.33,100.964z"/>
      <path style="fill:#FF2A6E;" d="M262.393,100.749c0.051,0,0.092-0.041,0.092-0.092c0-0.051-0.041-0.092-0.092-0.092 c-0.051,0-0.092,0.041-0.092,0.092C262.301,100.707,262.342,100.749,262.393,100.749z"/>
      <path style="fill:#FF2A6E;" d="M13.464,111.782c0.034,0,0.061-0.027,0.061-0.061s-0.028-0.061-0.061-0.061 c-0.034,0-0.061,0.028-0.061,0.061S13.431,111.782,13.464,111.782z"/>
      <path style="fill:#FF2A6E;" d="M24.528,111.935c0.119,0,0.215-0.096,0.215-0.215s-0.096-0.215-0.215-0.215 c-0.119,0-0.215,0.096-0.215,0.215S24.409,111.935,24.528,111.935z"/>
      <path style="fill:#FF2A6E;" d="M35.591,112.242c0.288,0,0.521-0.233,0.521-0.521c0-0.288-0.234-0.522-0.521-0.522 c-0.288,0-0.521,0.233-0.521,0.522C35.07,112.008,35.303,112.242,35.591,112.242z"/>
      <path style="fill:#FF2A6E;" d="M46.655,112.61c0.491,0,0.89-0.398,0.89-0.89c0-0.491-0.398-0.89-0.89-0.89 c-0.491,0-0.89,0.398-0.89,0.89C45.765,112.212,46.164,112.61,46.655,112.61z"/>
      <circle style="fill:#FF2A6E;" cx="57.718" cy="111.72" r="1.288"/>
      <path style="fill:#FF2A6E;" d="M68.782,113.53c1,0,1.81-0.81,1.81-1.81c0-1-0.81-1.81-1.81-1.81c-1,0-1.81,0.81-1.81,1.81 C66.972,112.72,67.782,113.53,68.782,113.53z"/>
      <path style="fill:#FF2A6E;" d="M79.845,114.052c1.288,0,2.332-1.044,2.332-2.331s-1.044-2.332-2.332-2.332 c-1.288,0-2.332,1.044-2.332,2.332S78.558,114.052,79.845,114.052z"/>
      <path style="fill:#FF2A6E;" d="M90.909,114.665c1.627,0,2.945-1.319,2.945-2.945c0-1.627-1.319-2.945-2.945-2.945 c-1.627,0-2.945,1.319-2.945,2.945C87.964,113.347,89.282,114.665,90.909,114.665z"/>
      <path style="fill:#FF2A6E;" d="M101.972,115.248c1.949,0,3.528-1.579,3.528-3.528s-1.579-3.528-3.528-3.528 c-1.948,0-3.528,1.58-3.528,3.528S100.024,115.248,101.972,115.248z"/>
      <path style="fill:#FF2A6E;" d="M113.036,115.831c2.27,0,4.111-1.84,4.111-4.111c0-2.271-1.84-4.111-4.111-4.111 c-2.27,0-4.111,1.84-4.111,4.111C108.925,113.991,110.765,115.831,113.036,115.831z"/>
      <path style="fill:#FF2A6E;" d="M124.099,116.353c2.558,0,4.632-2.074,4.632-4.632c0-2.559-2.074-4.632-4.632-4.632 c-2.559,0-4.632,2.074-4.632,4.632C119.467,114.279,121.541,116.353,124.099,116.353z"/>
      <path style="fill:#FF2A6E;" d="M135.163,116.721c2.762,0,5.001-2.239,5.001-5.001c0-2.762-2.239-5.001-5.001-5.001 c-2.762,0-5.001,2.239-5.001,5.001C130.162,114.482,132.401,116.721,135.163,116.721z"/>
      <path style="fill:#FF2A6E;" d="M146.226,116.843c2.83,0,5.123-2.294,5.123-5.123c0-2.83-2.294-5.123-5.123-5.123 c-2.829,0-5.123,2.294-5.123,5.123C141.103,114.55,143.397,116.843,146.226,116.843z"/>
      <circle style="fill:#FF2A6E;" cx="157.29" cy="111.72" r="4.909"/>
      <circle style="fill:#FF2A6E;" cx="168.353" cy="111.72" r="4.479"/>
      <path style="fill:#FF2A6E;" d="M179.417,115.678c2.186,0,3.958-1.772,3.958-3.957s-1.772-3.958-3.958-3.958 s-3.957,1.772-3.957,3.958S177.231,115.678,179.417,115.678z"/>
      <path style="fill:#FF2A6E;" d="M190.48,115.064c1.847,0,3.344-1.497,3.344-3.344c0-1.847-1.497-3.344-3.344-3.344 c-1.847,0-3.344,1.497-3.344,3.344C187.136,113.567,188.633,115.064,190.48,115.064z"/>
      <circle style="fill:#FF2A6E;" cx="201.544" cy="111.72" r="2.73"/>
      <circle style="fill:#FF2A6E;" cx="212.607" cy="111.72" r="2.148"/>
      <path style="fill:#FF2A6E;" d="M223.671,113.346c0.898,0,1.626-0.728,1.626-1.626s-0.728-1.626-1.626-1.626 c-0.898,0-1.626,0.728-1.626,1.626S222.773,113.346,223.671,113.346z"/>
      <circle style="fill:#FF2A6E;" cx="234.734" cy="111.72" r="1.135"/>
      <circle style="fill:#FF2A6E;" cx="245.798" cy="111.72" r="0.736"/>
      <path style="fill:#FF2A6E;" d="M256.861,112.119c0.22,0,0.399-0.179,0.399-0.399c0-0.22-0.178-0.399-0.399-0.399 s-0.399,0.179-0.399,0.399C256.462,111.94,256.641,112.119,256.861,112.119z"/>
      <circle style="fill:#FF2A6E;" cx="267.925" cy="111.72" r="0.153"/>
      <path style="fill:#FF2A6E;" d="M278.988,111.751c0.017,0,0.031-0.014,0.031-0.031c0-0.017-0.014-0.031-0.031-0.031 c-0.017,0-0.031,0.014-0.031,0.031C278.958,111.737,278.971,111.751,278.988,111.751z"/>
      <path style="fill:#FF2A6E;" d="M7.933,122.845c0.034,0,0.061-0.028,0.061-0.061c0-0.034-0.028-0.061-0.061-0.061 c-0.034,0-0.061,0.028-0.061,0.061C7.871,122.817,7.899,122.845,7.933,122.845z"/>
      <path style="fill:#FF2A6E;" d="M18.996,123.06c0.153,0,0.276-0.124,0.276-0.276c0-0.152-0.124-0.276-0.276-0.276 c-0.152,0-0.276,0.124-0.276,0.276C18.72,122.936,18.844,123.06,18.996,123.06z"/>
      <circle style="fill:#FF2A6E;" cx="30.06" cy="122.784" r="0.583"/>
      <path style="fill:#FF2A6E;" d="M41.123,123.765c0.542,0,0.982-0.44,0.982-0.982c0-0.542-0.44-0.982-0.982-0.982 c-0.542,0-0.982,0.44-0.982,0.982C40.141,123.326,40.581,123.765,41.123,123.765z"/>
      <circle style="fill:#FF2A6E;" cx="52.187" cy="122.784" r="1.442"/>
      <path style="fill:#FF2A6E;" d="M63.25,124.747c1.084,0,1.964-0.879,1.964-1.963c0-1.084-0.879-1.964-1.964-1.964 c-1.084,0-1.963,0.879-1.963,1.964C61.287,123.868,62.166,124.747,63.25,124.747z"/>
      <path style="fill:#FF2A6E;" d="M74.314,125.391c1.44,0,2.608-1.167,2.608-2.608c0-1.44-1.168-2.608-2.608-2.608 s-2.608,1.167-2.608,2.608C71.706,124.224,72.873,125.391,74.314,125.391z"/>
      <path style="fill:#FF2A6E;" d="M85.377,126.005c1.779,0,3.221-1.442,3.221-3.221c0-1.779-1.442-3.221-3.221-3.221 c-1.779,0-3.221,1.442-3.221,3.221C82.156,124.563,83.598,126.005,85.377,126.005z"/>
      <path style="fill:#FF2A6E;" d="M96.441,126.741c2.186,0,3.958-1.772,3.958-3.958s-1.772-3.958-3.958-3.958 s-3.957,1.772-3.957,3.958S94.255,126.741,96.441,126.741z"/>
      <path style="fill:#FF2A6E;" d="M107.504,127.416c2.559,0,4.632-2.074,4.632-4.632c0-2.559-2.074-4.632-4.632-4.632 c-2.558,0-4.632,2.074-4.632,4.632C102.872,125.342,104.946,127.416,107.504,127.416z"/>
      <path style="fill:#FF2A6E;" d="M118.568,128.091c2.931,0,5.307-2.376,5.307-5.307s-2.376-5.308-5.307-5.308 c-2.931,0-5.307,2.376-5.307,5.308S115.636,128.091,118.568,128.091z"/>
      <path style="fill:#FF2A6E;" d="M129.631,128.613c3.219,0,5.829-2.61,5.829-5.829c0-3.219-2.61-5.829-5.829-5.829 c-3.219,0-5.829,2.61-5.829,5.829C123.802,126.003,126.412,128.613,129.631,128.613z"/>
      <path style="fill:#FF2A6E;" d="M140.695,128.766c3.304,0,5.982-2.678,5.982-5.982c0-3.304-2.678-5.982-5.982-5.982 s-5.982,2.678-5.982,5.982C134.712,126.088,137.391,128.766,140.695,128.766z"/>
      <path style="fill:#FF2A6E;" d="M151.758,128.49c3.152,0,5.706-2.555,5.706-5.706c0-3.151-2.555-5.706-5.706-5.706 s-5.706,2.555-5.706,5.706C146.052,125.935,148.607,128.49,151.758,128.49z"/>
      <path style="fill:#FF2A6E;" d="M162.822,127.907c2.829,0,5.123-2.294,5.123-5.123c0-2.83-2.294-5.123-5.123-5.123 c-2.83,0-5.123,2.294-5.123,5.123C157.698,125.613,159.992,127.907,162.822,127.907z"/>
      <path style="fill:#FF2A6E;" d="M173.885,127.171c2.423,0,4.387-1.964,4.387-4.387s-1.964-4.387-4.387-4.387 s-4.387,1.964-4.387,4.387S171.462,127.171,173.885,127.171z"/>
      <path style="fill:#FF2A6E;" d="M184.949,126.496c2.05,0,3.712-1.662,3.712-3.712c0-2.05-1.662-3.712-3.712-3.712 c-2.05,0-3.712,1.662-3.712,3.712C181.236,124.834,182.898,126.496,184.949,126.496z"/>
      <path style="fill:#FF2A6E;" d="M196.012,125.79c1.66,0,3.007-1.346,3.007-3.007c0-1.66-1.346-3.007-3.007-3.007 c-1.661,0-3.007,1.346-3.007,3.007C193.006,124.444,194.352,125.79,196.012,125.79z"/>
      <path style="fill:#FF2A6E;" d="M207.076,125.146c1.305,0,2.362-1.058,2.362-2.362c0-1.305-1.058-2.362-2.362-2.362 c-1.305,0-2.362,1.058-2.362,2.362C204.713,124.088,205.771,125.146,207.076,125.146z"/>
      <path style="fill:#FF2A6E;" d="M218.139,124.594c1,0,1.81-0.81,1.81-1.81c0-1-0.81-1.81-1.81-1.81c-1,0-1.81,0.81-1.81,1.81 C216.329,123.783,217.139,124.594,218.139,124.594z"/>
      <circle style="fill:#FF2A6E;" cx="229.203" cy="122.784" r="1.288"/>
      <path style="fill:#FF2A6E;" d="M240.266,123.612c0.457,0,0.828-0.371,0.828-0.828c0-0.457-0.371-0.828-0.828-0.828 c-0.458,0-0.828,0.371-0.828,0.828C239.438,123.241,239.809,123.612,240.266,123.612z"/>
      <path style="fill:#FF2A6E;" d="M251.33,123.274c0.271,0,0.491-0.22,0.491-0.491c0-0.271-0.22-0.491-0.491-0.491 c-0.271,0-0.491,0.22-0.491,0.491C250.839,123.055,251.059,123.274,251.33,123.274z"/>
      <path style="fill:#FF2A6E;" d="M262.393,122.998c0.119,0,0.215-0.096,0.215-0.215s-0.096-0.215-0.215-0.215 c-0.119,0-0.215,0.096-0.215,0.215S262.274,122.998,262.393,122.998z"/>
      <path style="fill:#FF2A6E;" d="M273.457,122.814c0.017,0,0.031-0.014,0.031-0.031c0-0.017-0.014-0.031-0.031-0.031 c-0.017,0-0.031,0.014-0.031,0.031C273.426,122.801,273.44,122.814,273.457,122.814z"/>
      <path style="fill:#FF2A6E;" d="M13.464,133.939c0.051,0,0.092-0.041,0.092-0.092c0-0.051-0.041-0.092-0.092-0.092 c-0.051,0-0.092,0.041-0.092,0.092C13.372,133.898,13.414,133.939,13.464,133.939z"/>
      <path style="fill:#FF2A6E;" d="M24.528,134.154c0.169,0,0.307-0.137,0.307-0.307c0-0.169-0.137-0.307-0.307-0.307 c-0.169,0-0.307,0.137-0.307,0.307C24.221,134.017,24.358,134.154,24.528,134.154z"/>
      <path style="fill:#FF2A6E;" d="M35.591,134.491c0.356,0,0.644-0.288,0.644-0.644c0-0.356-0.288-0.644-0.644-0.644 s-0.644,0.288-0.644,0.644C34.947,134.203,35.236,134.491,35.591,134.491z"/>
      <path style="fill:#FF2A6E;" d="M46.655,134.89c0.576,0,1.043-0.467,1.043-1.043c0-0.576-0.467-1.043-1.043-1.043 s-1.043,0.467-1.043,1.043C45.612,134.423,46.079,134.89,46.655,134.89z"/>
      <path style="fill:#FF2A6E;" d="M57.718,135.381c0.847,0,1.534-0.687,1.534-1.534c0-0.847-0.687-1.534-1.534-1.534 c-0.847,0-1.534,0.687-1.534,1.534C56.184,134.694,56.871,135.381,57.718,135.381z"/>
      <path style="fill:#FF2A6E;" d="M68.782,135.933c1.152,0,2.086-0.934,2.086-2.086c0-1.152-0.934-2.086-2.086-2.086 c-1.152,0-2.086,0.934-2.086,2.086C66.696,134.999,67.63,135.933,68.782,135.933z"/>
      <path style="fill:#FF2A6E;" d="M79.845,136.578c1.508,0,2.73-1.223,2.73-2.73c0-1.508-1.222-2.73-2.73-2.73 c-1.508,0-2.73,1.223-2.73,2.73C77.115,135.355,78.337,136.578,79.845,136.578z"/>
      <path style="fill:#FF2A6E;" d="M90.909,137.314c1.915,0,3.467-1.552,3.467-3.467s-1.552-3.467-3.467-3.467 c-1.915,0-3.467,1.552-3.467,3.467S88.994,137.314,90.909,137.314z"/>
      <path style="fill:#FF2A6E;" d="M101.972,138.05c2.321,0,4.203-1.882,4.203-4.203c0-2.321-1.882-4.203-4.203-4.203 c-2.321,0-4.203,1.882-4.203,4.203C97.769,136.168,99.651,138.05,101.972,138.05z"/>
      <path style="fill:#FF2A6E;" d="M113.036,138.848c2.762,0,5.001-2.239,5.001-5.001c0-2.762-2.239-5.001-5.001-5.001 c-2.762,0-5.001,2.239-5.001,5.001C108.035,136.609,110.274,138.848,113.036,138.848z"/>
      <path style="fill:#FF2A6E;" d="M124.099,139.676c3.219,0,5.829-2.61,5.829-5.829c0-3.219-2.61-5.829-5.829-5.829 c-3.219,0-5.829,2.61-5.829,5.829C118.27,137.066,120.88,139.676,124.099,139.676z"/>
      <path style="fill:#FF2A6E;" d="M135.163,140.504c3.677,0,6.657-2.98,6.657-6.657c0-3.677-2.98-6.657-6.657-6.657 c-3.677,0-6.657,2.98-6.657,6.657C128.506,137.524,131.486,140.504,135.163,140.504z"/>
      <path style="fill:#FF2A6E;" d="M146.226,140.811c3.846,0,6.964-3.118,6.964-6.964c0-3.846-3.118-6.964-6.964-6.964 c-3.846,0-6.964,3.118-6.964,6.964C139.262,137.693,142.38,140.811,146.226,140.811z"/>
      <path style="fill:#FF2A6E;" d="M157.29,140.259c3.541,0,6.412-2.871,6.412-6.412c0-3.541-2.871-6.412-6.412-6.412 c-3.541,0-6.412,2.871-6.412,6.412C150.878,137.388,153.749,140.259,157.29,140.259z"/>
      <path style="fill:#FF2A6E;" d="M168.353,139.4c3.067,0,5.553-2.486,5.553-5.553c0-3.067-2.486-5.553-5.553-5.553 c-3.067,0-5.553,2.486-5.553,5.553C162.801,136.914,165.287,139.4,168.353,139.4z"/>
      <path style="fill:#FF2A6E;" d="M179.417,138.572c2.609,0,4.725-2.115,4.725-4.725c0-2.609-2.115-4.725-4.725-4.725 c-2.609,0-4.724,2.115-4.724,4.725C174.692,136.456,176.808,138.572,179.417,138.572z"/>
      <path style="fill:#FF2A6E;" d="M190.48,137.805c2.186,0,3.958-1.772,3.958-3.958s-1.772-3.958-3.958-3.958 s-3.958,1.772-3.958,3.958S188.295,137.805,190.48,137.805z"/>
      <path style="fill:#FF2A6E;" d="M201.544,137.038c1.762,0,3.191-1.428,3.191-3.191c0-1.762-1.429-3.191-3.191-3.191 s-3.191,1.428-3.191,3.191C198.353,135.609,199.782,137.038,201.544,137.038z"/>
      <path style="fill:#FF2A6E;" d="M212.607,136.363c1.389,0,2.516-1.126,2.516-2.516c0-1.389-1.126-2.516-2.516-2.516 c-1.389,0-2.516,1.126-2.516,2.516C210.092,135.236,211.218,136.363,212.607,136.363z"/>
      <path style="fill:#FF2A6E;" d="M223.671,135.749c1.05,0,1.902-0.852,1.902-1.902c0-1.05-0.852-1.902-1.902-1.902 c-1.051,0-1.902,0.852-1.902,1.902C221.769,134.898,222.62,135.749,223.671,135.749z"/>
      <path style="fill:#FF2A6E;" d="M234.734,135.228c0.762,0,1.381-0.618,1.381-1.381c0-0.762-0.618-1.381-1.381-1.381 c-0.762,0-1.38,0.618-1.38,1.381C233.354,134.61,233.972,135.228,234.734,135.228z"/>
      <path style="fill:#FF2A6E;" d="M245.798,134.737c0.491,0,0.89-0.398,0.89-0.89c0-0.491-0.398-0.89-0.89-0.89 c-0.491,0-0.89,0.398-0.89,0.89C244.908,134.339,245.307,134.737,245.798,134.737z"/>
      <path style="fill:#FF2A6E;" d="M256.861,134.369c0.288,0,0.522-0.234,0.522-0.521c0-0.288-0.234-0.522-0.522-0.522 s-0.521,0.233-0.521,0.522C256.34,134.135,256.573,134.369,256.861,134.369z"/>
      <path style="fill:#FF2A6E;" d="M267.925,134.093c0.135,0,0.245-0.11,0.245-0.245c0-0.136-0.11-0.245-0.245-0.245 s-0.245,0.11-0.245,0.245C267.679,133.983,267.789,134.093,267.925,134.093z"/>
      <path style="fill:#FF2A6E;" d="M278.988,133.908c0.034,0,0.061-0.027,0.061-0.061c0-0.034-0.028-0.061-0.061-0.061 c-0.034,0-0.061,0.027-0.061,0.061C278.927,133.881,278.954,133.908,278.988,133.908z"/>
      <path style="fill:#FF2A6E;" d="M7.933,145.003c0.051,0,0.092-0.041,0.092-0.092c0-0.051-0.041-0.092-0.092-0.092 c-0.051,0-0.092,0.041-0.092,0.092C7.841,144.962,7.882,145.003,7.933,145.003z"/>
      <path style="fill:#FF2A6E;" d="M18.996,145.248c0.186,0,0.337-0.151,0.337-0.337c0-0.186-0.151-0.338-0.337-0.338 c-0.186,0-0.337,0.151-0.337,0.338C18.659,145.097,18.81,145.248,18.996,145.248z"/>
      <path style="fill:#FF2A6E;" d="M30.06,145.555c0.356,0,0.644-0.288,0.644-0.644c0-0.356-0.288-0.644-0.644-0.644 c-0.356,0-0.644,0.288-0.644,0.644C29.415,145.266,29.704,145.555,30.06,145.555z"/>
      <path style="fill:#FF2A6E;" d="M41.123,145.954c0.576,0,1.043-0.467,1.043-1.043c0-0.576-0.467-1.043-1.043-1.043 c-0.576,0-1.043,0.467-1.043,1.043C40.08,145.487,40.547,145.954,41.123,145.954z"/>
      <path style="fill:#FF2A6E;" d="M52.187,146.475c0.864,0,1.565-0.701,1.565-1.565c0-0.864-0.701-1.565-1.565-1.565 s-1.565,0.701-1.565,1.565C50.622,145.775,51.322,146.475,52.187,146.475z"/>
      <path style="fill:#FF2A6E;" d="M63.25,147.027c1.169,0,2.117-0.948,2.117-2.117c0-1.169-0.948-2.117-2.117-2.117 s-2.117,0.948-2.117,2.117C61.133,146.08,62.081,147.027,63.25,147.027z"/>
      <path style="fill:#FF2A6E;" d="M74.314,147.672c1.525,0,2.761-1.236,2.761-2.761c0-1.525-1.236-2.761-2.761-2.761 s-2.761,1.236-2.761,2.761C71.552,146.436,72.789,147.672,74.314,147.672z"/>
      <path style="fill:#FF2A6E;" d="M85.377,148.408c1.932,0,3.497-1.566,3.497-3.497c0-1.932-1.566-3.497-3.497-3.497 c-1.931,0-3.497,1.566-3.497,3.497C81.88,146.842,83.446,148.408,85.377,148.408z"/>
      <path style="fill:#FF2A6E;" d="M96.441,149.175c2.355,0,4.264-1.909,4.264-4.264c0-2.355-1.909-4.264-4.264-4.264 c-2.355,0-4.264,1.909-4.264,4.264C92.176,147.266,94.086,149.175,96.441,149.175z"/>
      <path style="fill:#FF2A6E;" d="M107.504,150.034c2.83,0,5.123-2.294,5.123-5.123c0-2.83-2.294-5.123-5.123-5.123 c-2.829,0-5.123,2.294-5.123,5.123C102.381,147.74,104.675,150.034,107.504,150.034z"/>
      <path style="fill:#FF2A6E;" d="M118.568,150.893c3.304,0,5.982-2.678,5.982-5.982c0-3.304-2.678-5.982-5.982-5.982 c-3.304,0-5.982,2.678-5.982,5.982C112.585,148.215,115.264,150.893,118.568,150.893z"/>
      <circle style="fill:#FF2A6E;" cx="129.631" cy="144.911" r="6.964"/>
      <circle style="fill:#FF2A6E;" cx="140.695" cy="144.911" r="7.578"/>
      <circle style="fill:#FF2A6E;" cx="151.758" cy="144.911" r="6.657"/>
      <path style="fill:#FF2A6E;" d="M162.822,150.617c3.152,0,5.706-2.555,5.706-5.706c0-3.152-2.555-5.706-5.706-5.706 c-3.151,0-5.706,2.555-5.706,5.706C157.115,148.062,159.67,150.617,162.822,150.617z"/>
      <path style="fill:#FF2A6E;" d="M173.885,149.727c2.66,0,4.816-2.156,4.816-4.816c0-2.66-2.156-4.817-4.816-4.817 s-4.817,2.156-4.817,4.817C169.068,147.571,171.225,149.727,173.885,149.727z"/>
      <path style="fill:#FF2A6E;" d="M184.949,148.899c2.203,0,3.988-1.786,3.988-3.988c0-2.203-1.786-3.988-3.988-3.988 c-2.203,0-3.988,1.786-3.988,3.988C180.96,147.113,182.746,148.899,184.949,148.899z"/>
      <path style="fill:#FF2A6E;" d="M196.012,148.132c1.779,0,3.221-1.442,3.221-3.221c0-1.779-1.442-3.221-3.221-3.221 c-1.779,0-3.221,1.442-3.221,3.221C192.791,146.69,194.233,148.132,196.012,148.132z"/>
      <path style="fill:#FF2A6E;" d="M207.076,147.457c1.406,0,2.546-1.14,2.546-2.546c0-1.406-1.14-2.546-2.546-2.546 c-1.406,0-2.546,1.14-2.546,2.546C204.529,146.317,205.669,147.457,207.076,147.457z"/>
      <path style="fill:#FF2A6E;" d="M218.139,146.843c1.067,0,1.933-0.865,1.933-1.933c0-1.068-0.865-1.933-1.933-1.933 c-1.068,0-1.933,0.865-1.933,1.933C216.206,145.978,217.072,146.843,218.139,146.843z"/>
      <path style="fill:#FF2A6E;" d="M229.203,146.291c0.762,0,1.38-0.618,1.38-1.38c0-0.763-0.618-1.381-1.38-1.381 c-0.763,0-1.381,0.618-1.381,1.381C227.822,145.673,228.44,146.291,229.203,146.291z"/>
      <path style="fill:#FF2A6E;" d="M240.266,145.831c0.508,0,0.92-0.412,0.92-0.92c0-0.508-0.412-0.92-0.92-0.92 s-0.92,0.412-0.92,0.92C239.346,145.419,239.758,145.831,240.266,145.831z"/>
      <path style="fill:#FF2A6E;" d="M251.33,145.432c0.288,0,0.521-0.234,0.521-0.521c0-0.288-0.234-0.522-0.521-0.522 c-0.288,0-0.522,0.234-0.522,0.522C250.808,145.199,251.042,145.432,251.33,145.432z"/>
      <path style="fill:#FF2A6E;" d="M262.393,145.156c0.135,0,0.245-0.11,0.245-0.245c0-0.136-0.11-0.245-0.245-0.245 c-0.136,0-0.245,0.11-0.245,0.245C262.148,145.046,262.258,145.156,262.393,145.156z"/>
      <path style="fill:#FF2A6E;" d="M273.457,144.972c0.034,0,0.061-0.027,0.061-0.061c0-0.034-0.028-0.061-0.061-0.061 c-0.034,0-0.061,0.027-0.061,0.061C273.395,144.945,273.423,144.972,273.457,144.972z"/>
      <path style="fill:#FF2A6E;" d="M13.464,156.066c0.051,0,0.092-0.041,0.092-0.092c0-0.051-0.041-0.092-0.092-0.092 c-0.051,0-0.092,0.041-0.092,0.092C13.372,156.025,13.414,156.066,13.464,156.066z"/>
      <path style="fill:#FF2A6E;" d="M24.528,156.281c0.169,0,0.307-0.137,0.307-0.307c0-0.169-0.137-0.307-0.307-0.307 c-0.169,0-0.307,0.137-0.307,0.307C24.221,156.144,24.358,156.281,24.528,156.281z"/>
      <path style="fill:#FF2A6E;" d="M35.591,156.588c0.339,0,0.614-0.275,0.614-0.614c0-0.339-0.275-0.614-0.614-0.614 s-0.614,0.275-0.614,0.614C34.978,156.313,35.252,156.588,35.591,156.588z"/>
      <path style="fill:#FF2A6E;" d="M46.655,157.017c0.576,0,1.043-0.467,1.043-1.043c0-0.576-0.467-1.043-1.043-1.043 s-1.043,0.467-1.043,1.043C45.612,156.55,46.079,157.017,46.655,157.017z"/>
      <path style="fill:#FF2A6E;" d="M57.718,157.508c0.847,0,1.534-0.687,1.534-1.534c0-0.847-0.687-1.534-1.534-1.534 c-0.847,0-1.534,0.687-1.534,1.534C56.184,156.821,56.871,157.508,57.718,157.508z"/>
      <path style="fill:#FF2A6E;" d="M68.782,158.03c1.135,0,2.056-0.92,2.056-2.055c0-1.135-0.92-2.055-2.056-2.055 s-2.055,0.92-2.055,2.055C66.726,157.109,67.647,158.03,68.782,158.03z"/>
      <path style="fill:#FF2A6E;" d="M79.845,158.674c1.491,0,2.7-1.209,2.7-2.7c0-1.491-1.209-2.7-2.7-2.7c-1.491,0-2.7,1.209-2.7,2.7 C77.146,157.465,78.354,158.674,79.845,158.674z"/>
      <path style="fill:#FF2A6E;" d="M90.909,159.349c1.864,0,3.375-1.511,3.375-3.375c0-1.864-1.511-3.375-3.375-3.375 c-1.864,0-3.375,1.511-3.375,3.375C87.534,157.838,89.045,159.349,90.909,159.349z"/>
      <path style="fill:#FF2A6E;" d="M101.972,160.085c2.27,0,4.111-1.84,4.111-4.111c0-2.27-1.84-4.111-4.111-4.111 c-2.27,0-4.111,1.84-4.111,4.111C97.861,158.245,99.702,160.085,101.972,160.085z"/>
      <path style="fill:#FF2A6E;" d="M113.036,160.883c2.711,0,4.909-2.198,4.909-4.909c0-2.711-2.198-4.909-4.909-4.909 c-2.711,0-4.909,2.198-4.909,4.909C108.127,158.685,110.325,160.883,113.036,160.883z"/>
      <path style="fill:#FF2A6E;" d="M124.099,161.68c3.151,0,5.706-2.555,5.706-5.706c0-3.151-2.555-5.706-5.706-5.706 c-3.152,0-5.706,2.555-5.706,5.706C118.393,159.126,120.948,161.68,124.099,161.68z"/>
      <path style="fill:#FF2A6E;" d="M135.163,162.386c3.541,0,6.412-2.871,6.412-6.412c0-3.541-2.871-6.412-6.412-6.412 c-3.541,0-6.412,2.871-6.412,6.412C128.751,159.515,131.622,162.386,135.163,162.386z"/>
      <path style="fill:#FF2A6E;" d="M146.226,162.631c3.677,0,6.657-2.98,6.657-6.657c0-3.677-2.98-6.657-6.657-6.657 c-3.677,0-6.657,2.98-6.657,6.657C139.569,159.651,142.55,162.631,146.226,162.631z"/>
      <path style="fill:#FF2A6E;" d="M157.29,162.141c3.406,0,6.167-2.761,6.167-6.166c0-3.406-2.761-6.166-6.167-6.166 c-3.406,0-6.166,2.761-6.166,6.166C151.123,159.38,153.884,162.141,157.29,162.141z"/>
      <path style="fill:#FF2A6E;" d="M168.353,161.404c2.999,0,5.43-2.431,5.43-5.43c0-2.999-2.431-5.43-5.43-5.43 c-2.999,0-5.43,2.431-5.43,5.43C162.923,158.973,165.354,161.404,168.353,161.404z"/>
      <path style="fill:#FF2A6E;" d="M179.417,160.607c2.559,0,4.633-2.074,4.633-4.632c0-2.558-2.074-4.632-4.633-4.632 c-2.558,0-4.632,2.074-4.632,4.632C174.784,158.533,176.858,160.607,179.417,160.607z"/>
      <path style="fill:#FF2A6E;" d="M190.48,159.84c2.135,0,3.865-1.731,3.865-3.866c0-2.135-1.731-3.866-3.865-3.866 c-2.135,0-3.865,1.731-3.865,3.866C186.615,158.109,188.346,159.84,190.48,159.84z"/>
      <path style="fill:#FF2A6E;" d="M201.544,159.134c1.745,0,3.16-1.415,3.16-3.16c0-1.745-1.415-3.16-3.16-3.16 c-1.745,0-3.16,1.415-3.16,3.16C198.384,157.719,199.799,159.134,201.544,159.134z"/>
      <path style="fill:#FF2A6E;" d="M212.607,158.459c1.372,0,2.485-1.113,2.485-2.485c0-1.372-1.113-2.485-2.485-2.485 s-2.485,1.113-2.485,2.485C210.122,157.347,211.235,158.459,212.607,158.459z"/>
      <path style="fill:#FF2A6E;" d="M223.671,157.876c1.05,0,1.902-0.852,1.902-1.902c0-1.05-0.852-1.902-1.902-1.902 c-1.051,0-1.902,0.852-1.902,1.902C221.769,157.025,222.62,157.876,223.671,157.876z"/>
      <path style="fill:#FF2A6E;" d="M234.734,157.324c0.745,0,1.35-0.604,1.35-1.35c0-0.745-0.604-1.35-1.35-1.35 s-1.35,0.604-1.35,1.35C233.384,156.72,233.989,157.324,234.734,157.324z"/>
      <path style="fill:#FF2A6E;" d="M245.798,156.864c0.491,0,0.89-0.398,0.89-0.89c0-0.491-0.398-0.89-0.89-0.89 c-0.491,0-0.89,0.398-0.89,0.89C244.908,156.465,245.307,156.864,245.798,156.864z"/>
      <path style="fill:#FF2A6E;" d="M256.861,156.496c0.288,0,0.522-0.233,0.522-0.522c0-0.288-0.234-0.521-0.522-0.521 s-0.521,0.233-0.521,0.521C256.34,156.262,256.573,156.496,256.861,156.496z"/>
      <path style="fill:#FF2A6E;" d="M267.925,156.189c0.119,0,0.215-0.096,0.215-0.215c0-0.119-0.096-0.215-0.215-0.215 s-0.215,0.096-0.215,0.215C267.71,156.093,267.806,156.189,267.925,156.189z"/>
      <path style="fill:#FF2A6E;" d="M278.988,156.005c0.017,0,0.031-0.014,0.031-0.031c0-0.017-0.014-0.031-0.031-0.031 c-0.017,0-0.031,0.014-0.031,0.031C278.958,155.991,278.971,156.005,278.988,156.005z"/>
      <path style="fill:#FF2A6E;" d="M7.933,167.099c0.034,0,0.061-0.027,0.061-0.061c0-0.034-0.028-0.061-0.061-0.061 c-0.034,0-0.061,0.027-0.061,0.061C7.871,167.072,7.899,167.099,7.933,167.099z"/>
      <path style="fill:#FF2A6E;" d="M18.996,167.314c0.153,0,0.276-0.124,0.276-0.276c0-0.152-0.124-0.276-0.276-0.276 c-0.152,0-0.276,0.124-0.276,0.276C18.72,167.19,18.844,167.314,18.996,167.314z"/>
      <circle style="fill:#FF2A6E;" cx="30.06" cy="167.038" r="0.583"/>
      <path style="fill:#FF2A6E;" d="M41.123,167.989c0.525,0,0.951-0.426,0.951-0.951c0-0.525-0.426-0.951-0.951-0.951 c-0.525,0-0.951,0.426-0.951,0.951C40.172,167.563,40.598,167.989,41.123,167.989z"/>
      <path style="fill:#FF2A6E;" d="M52.187,168.449c0.779,0,1.411-0.632,1.411-1.411s-0.632-1.411-1.411-1.411 s-1.411,0.632-1.411,1.411S51.407,168.449,52.187,168.449z"/>
      <path style="fill:#FF2A6E;" d="M63.25,168.97c1.067,0,1.933-0.865,1.933-1.933c0-1.067-0.865-1.933-1.933-1.933 c-1.067,0-1.933,0.865-1.933,1.933C61.317,168.105,62.183,168.97,63.25,168.97z"/>
      <path style="fill:#FF2A6E;" d="M74.314,169.553c1.389,0,2.516-1.126,2.516-2.516c0-1.389-1.126-2.516-2.516-2.516 c-1.389,0-2.516,1.126-2.516,2.516C71.798,168.427,72.924,169.553,74.314,169.553z"/>
      <circle style="fill:#FF2A6E;" cx="85.377" cy="167.038" r="3.16"/>
      <path style="fill:#FF2A6E;" d="M96.441,170.872c2.118,0,3.835-1.717,3.835-3.835c0-2.118-1.717-3.835-3.835-3.835 c-2.118,0-3.835,1.717-3.835,3.835C92.606,169.156,94.323,170.872,96.441,170.872z"/>
      <circle style="fill:#FF2A6E;" cx="107.504" cy="167.038" r="4.479"/>
      <path style="fill:#FF2A6E;" d="M118.568,172.161c2.83,0,5.123-2.294,5.123-5.123c0-2.829-2.294-5.123-5.123-5.123 c-2.829,0-5.123,2.294-5.123,5.123C113.444,169.867,115.738,172.161,118.568,172.161z"/>
      <path style="fill:#FF2A6E;" d="M129.631,172.59c3.067,0,5.553-2.486,5.553-5.553c0-3.067-2.486-5.553-5.553-5.553 c-3.067,0-5.553,2.486-5.553,5.553C124.078,170.104,126.564,172.59,129.631,172.59z"/>
      <path style="fill:#FF2A6E;" d="M140.695,172.744c3.152,0,5.706-2.555,5.706-5.706c0-3.151-2.555-5.706-5.706-5.706 c-3.151,0-5.706,2.555-5.706,5.706C134.988,170.189,137.543,172.744,140.695,172.744z"/>
      <path style="fill:#FF2A6E;" d="M151.758,172.468c2.999,0,5.43-2.431,5.43-5.43c0-2.999-2.431-5.43-5.43-5.43 c-2.999,0-5.43,2.431-5.43,5.43C146.328,170.037,148.759,172.468,151.758,172.468z"/>
      <circle style="fill:#FF2A6E;" cx="162.822" cy="167.038" r="4.909"/>
      <path style="fill:#FF2A6E;" d="M173.885,171.302c2.355,0,4.264-1.909,4.264-4.264c0-2.355-1.909-4.264-4.264-4.264 s-4.264,1.909-4.264,4.264C169.621,169.393,171.53,171.302,173.885,171.302z"/>
      <path style="fill:#FF2A6E;" d="M184.949,170.627c1.982,0,3.589-1.607,3.589-3.59c0-1.982-1.607-3.589-3.589-3.589 c-1.982,0-3.589,1.607-3.589,3.589C181.359,169.02,182.966,170.627,184.949,170.627z"/>
      <path style="fill:#FF2A6E;" d="M196.012,169.983c1.626,0,2.945-1.319,2.945-2.945c0-1.626-1.319-2.945-2.945-2.945 c-1.627,0-2.945,1.319-2.945,2.945C193.067,168.664,194.385,169.983,196.012,169.983z"/>
      <circle style="fill:#FF2A6E;" cx="207.076" cy="167.038" r="2.301"/>
      <path style="fill:#FF2A6E;" d="M218.139,168.786c0.966,0,1.749-0.783,1.749-1.749c0-0.966-0.783-1.749-1.749-1.749 c-0.966,0-1.749,0.783-1.749,1.749C216.39,168.003,217.173,168.786,218.139,168.786z"/>
      <path style="fill:#FF2A6E;" d="M229.203,168.296c0.695,0,1.258-0.563,1.258-1.258c0-0.695-0.563-1.258-1.258-1.258 c-0.695,0-1.258,0.563-1.258,1.258C227.945,167.732,228.508,168.296,229.203,168.296z"/>
      <path style="fill:#FF2A6E;" d="M240.266,167.866c0.457,0,0.828-0.371,0.828-0.828c0-0.457-0.371-0.828-0.828-0.828 c-0.458,0-0.828,0.371-0.828,0.828C239.438,167.495,239.809,167.866,240.266,167.866z"/>
      <path style="fill:#FF2A6E;" d="M251.33,167.498c0.254,0,0.46-0.206,0.46-0.46c0-0.254-0.206-0.46-0.46-0.46 c-0.254,0-0.46,0.206-0.46,0.46C250.869,167.292,251.075,167.498,251.33,167.498z"/>
      <path style="fill:#FF2A6E;" d="M262.393,167.222c0.102,0,0.184-0.082,0.184-0.184c0-0.102-0.082-0.184-0.184-0.184 c-0.102,0-0.184,0.082-0.184,0.184C262.209,167.139,262.291,167.222,262.393,167.222z"/>
      <path style="fill:#FF2A6E;" d="M273.457,167.068c0.017,0,0.031-0.014,0.031-0.031c0-0.017-0.014-0.031-0.031-0.031 c-0.017,0-0.031,0.014-0.031,0.031C273.426,167.055,273.44,167.068,273.457,167.068z"/>
      <path style="fill:#FF2A6E;" d="M13.464,178.132c0.017,0,0.031-0.014,0.031-0.031c0-0.017-0.014-0.031-0.031-0.031 s-0.031,0.014-0.031,0.031C13.434,178.118,13.448,178.132,13.464,178.132z"/>
      <path style="fill:#FF2A6E;" d="M24.528,178.316c0.119,0,0.215-0.096,0.215-0.215c0-0.119-0.096-0.215-0.215-0.215 c-0.119,0-0.215,0.096-0.215,0.215C24.313,178.22,24.409,178.316,24.528,178.316z"/>
      <path style="fill:#FF2A6E;" d="M35.591,178.592c0.271,0,0.491-0.22,0.491-0.491c0-0.271-0.22-0.491-0.491-0.491 s-0.491,0.22-0.491,0.491C35.1,178.372,35.32,178.592,35.591,178.592z"/>
      <path style="fill:#FF2A6E;" d="M46.655,178.93c0.458,0,0.828-0.371,0.828-0.828c0-0.457-0.371-0.828-0.828-0.828 s-0.828,0.371-0.828,0.828C45.827,178.559,46.197,178.93,46.655,178.93z"/>
      <path style="fill:#FF2A6E;" d="M57.718,179.359c0.695,0,1.258-0.563,1.258-1.258c0-0.695-0.563-1.258-1.258-1.258 c-0.695,0-1.258,0.563-1.258,1.258C56.461,178.796,57.024,179.359,57.718,179.359z"/>
      <circle style="fill:#FF2A6E;" cx="68.782" cy="178.101" r="1.718"/>
      <path style="fill:#FF2A6E;" d="M79.845,180.341c1.237,0,2.24-1.003,2.24-2.24c0-1.237-1.003-2.24-2.24-2.24 c-1.237,0-2.24,1.003-2.24,2.24C77.606,179.338,78.608,180.341,79.845,180.341z"/>
      <path style="fill:#FF2A6E;" d="M90.909,180.893c1.542,0,2.792-1.25,2.792-2.792c0-1.542-1.25-2.792-2.792-2.792 c-1.542,0-2.792,1.25-2.792,2.792C88.117,179.643,89.367,180.893,90.909,180.893z"/>
      <path style="fill:#FF2A6E;" d="M101.972,181.476c1.864,0,3.375-1.511,3.375-3.375c0-1.864-1.511-3.375-3.375-3.375 c-1.864,0-3.375,1.511-3.375,3.375C98.598,179.965,100.109,181.476,101.972,181.476z"/>
      <path style="fill:#FF2A6E;" d="M113.036,182.059c2.186,0,3.958-1.772,3.958-3.958s-1.772-3.958-3.958-3.958 c-2.186,0-3.958,1.772-3.958,3.958S110.85,182.059,113.036,182.059z"/>
      <path style="fill:#FF2A6E;" d="M124.099,182.488c2.423,0,4.387-1.964,4.387-4.387s-1.964-4.387-4.387-4.387 c-2.423,0-4.387,1.964-4.387,4.387S121.676,182.488,124.099,182.488z"/>
      <path style="fill:#FF2A6E;" d="M135.163,182.826c2.609,0,4.725-2.115,4.725-4.725c0-2.609-2.115-4.725-4.725-4.725 c-2.609,0-4.725,2.115-4.725,4.725C130.438,180.71,132.554,182.826,135.163,182.826z"/>
      <path style="fill:#FF2A6E;" d="M146.226,182.918c2.66,0,4.817-2.156,4.817-4.817c0-2.66-2.156-4.816-4.817-4.816 c-2.66,0-4.816,2.156-4.816,4.816C141.41,180.761,143.566,182.918,146.226,182.918z"/>
      <path style="fill:#FF2A6E;" d="M157.29,182.734c2.559,0,4.633-2.074,4.633-4.632c0-2.558-2.074-4.632-4.633-4.632 c-2.558,0-4.632,2.074-4.632,4.632C152.657,180.66,154.731,182.734,157.29,182.734z"/>
      <path style="fill:#FF2A6E;" d="M168.353,182.365c2.355,0,4.264-1.909,4.264-4.264c0-2.355-1.909-4.264-4.264-4.264 c-2.355,0-4.264,1.909-4.264,4.264C164.089,180.456,165.998,182.365,168.353,182.365z"/>
      <circle style="fill:#FF2A6E;" cx="179.417" cy="178.101" r="3.743"/>
      <path style="fill:#FF2A6E;" d="M190.48,181.292c1.762,0,3.191-1.428,3.191-3.191s-1.428-3.191-3.191-3.191 s-3.191,1.428-3.191,3.191S188.718,181.292,190.48,181.292z"/>
      <path style="fill:#FF2A6E;" d="M201.544,180.74c1.457,0,2.638-1.181,2.638-2.638c0-1.457-1.181-2.638-2.638-2.638 c-1.457,0-2.638,1.181-2.638,2.638C198.906,179.558,200.087,180.74,201.544,180.74z"/>
      <path style="fill:#FF2A6E;" d="M212.607,180.157c1.135,0,2.055-0.92,2.055-2.055c0-1.135-0.92-2.055-2.055-2.055 s-2.055,0.92-2.055,2.055C210.552,179.236,211.472,180.157,212.607,180.157z"/>
      <path style="fill:#FF2A6E;" d="M223.671,179.666c0.864,0,1.565-0.701,1.565-1.565c0-0.864-0.701-1.565-1.565-1.565 c-0.864,0-1.565,0.701-1.565,1.565C222.106,178.965,222.807,179.666,223.671,179.666z"/>
      <path style="fill:#FF2A6E;" d="M234.734,179.206c0.61,0,1.104-0.494,1.104-1.104c0-0.61-0.494-1.104-1.104-1.104 c-0.61,0-1.104,0.494-1.104,1.104C233.63,178.711,234.124,179.206,234.734,179.206z"/>
      <circle style="fill:#FF2A6E;" cx="245.798" cy="178.101" r="0.706"/>
      <path style="fill:#FF2A6E;" d="M256.861,178.469c0.203,0,0.368-0.165,0.368-0.368c0-0.203-0.165-0.368-0.368-0.368 s-0.368,0.165-0.368,0.368C256.493,178.305,256.658,178.469,256.861,178.469z"/>
      <path style="fill:#FF2A6E;" d="M267.925,178.224c0.068,0,0.123-0.055,0.123-0.123c0-0.068-0.055-0.123-0.123-0.123 s-0.123,0.055-0.123,0.123C267.802,178.169,267.857,178.224,267.925,178.224z"/>
      <path style="fill:#FF2A6E;" d="M18.996,189.287c0.068,0,0.123-0.055,0.123-0.123c0-0.068-0.055-0.123-0.123-0.123 c-0.068,0-0.123,0.055-0.123,0.123C18.873,189.232,18.928,189.287,18.996,189.287z"/>
      <path style="fill:#FF2A6E;" d="M30.06,189.533c0.203,0,0.368-0.165,0.368-0.368c0-0.203-0.165-0.368-0.368-0.368 c-0.203,0-0.368,0.165-0.368,0.368C29.691,189.368,29.856,189.533,30.06,189.533z"/>
      <path style="fill:#FF2A6E;" d="M41.123,189.84c0.373,0,0.675-0.302,0.675-0.675c0-0.373-0.302-0.675-0.675-0.675 c-0.373,0-0.675,0.302-0.675,0.675C40.448,189.537,40.75,189.84,41.123,189.84z"/>
      <path style="fill:#FF2A6E;" d="M52.187,190.208c0.576,0,1.043-0.467,1.043-1.043c0-0.576-0.467-1.043-1.043-1.043 c-0.576,0-1.043,0.467-1.043,1.043C51.144,189.741,51.611,190.208,52.187,190.208z"/>
      <path style="fill:#FF2A6E;" d="M63.25,190.637c0.813,0,1.473-0.659,1.473-1.473c0-0.813-0.659-1.473-1.473-1.473 s-1.472,0.659-1.472,1.473C61.778,189.978,62.437,190.637,63.25,190.637z"/>
      <path style="fill:#FF2A6E;" d="M74.314,191.097c1.068,0,1.933-0.865,1.933-1.933c0-1.067-0.865-1.933-1.933-1.933 c-1.067,0-1.933,0.865-1.933,1.933C72.381,190.232,73.246,191.097,74.314,191.097z"/>
      <path style="fill:#FF2A6E;" d="M85.377,191.558c1.322,0,2.393-1.071,2.393-2.393c0-1.322-1.071-2.393-2.393-2.393 s-2.393,1.071-2.393,2.393C82.984,190.486,84.055,191.558,85.377,191.558z"/>
      <path style="fill:#FF2A6E;" d="M96.441,192.079c1.61,0,2.915-1.305,2.915-2.915c0-1.61-1.305-2.914-2.915-2.914 c-1.61,0-2.914,1.305-2.914,2.914C93.526,190.774,94.831,192.079,96.441,192.079z"/>
      <path style="fill:#FF2A6E;" d="M107.504,192.509c1.847,0,3.344-1.497,3.344-3.344c0-1.847-1.497-3.344-3.344-3.344 c-1.847,0-3.344,1.497-3.344,3.344C104.16,191.012,105.657,192.509,107.504,192.509z"/>
      <path style="fill:#FF2A6E;" d="M118.568,192.877c2.05,0,3.712-1.662,3.712-3.712c0-2.05-1.662-3.712-3.712-3.712 c-2.05,0-3.712,1.662-3.712,3.712C114.855,191.215,116.518,192.877,118.568,192.877z"/>
      <path style="fill:#FF2A6E;" d="M129.631,193.122c2.186,0,3.958-1.772,3.958-3.958s-1.772-3.957-3.958-3.957 c-2.186,0-3.958,1.772-3.958,3.957S127.445,193.122,129.631,193.122z"/>
      <path style="fill:#FF2A6E;" d="M140.695,193.153c2.203,0,3.988-1.786,3.988-3.988c0-2.203-1.786-3.988-3.988-3.988 c-2.203,0-3.988,1.786-3.988,3.988C136.706,191.367,138.492,193.153,140.695,193.153z"/>
      <path style="fill:#FF2A6E;" d="M151.758,193.03c2.135,0,3.865-1.731,3.865-3.866c0-2.135-1.731-3.865-3.865-3.865 s-3.866,1.731-3.866,3.865C147.893,191.299,149.623,193.03,151.758,193.03z"/>
      <circle style="fill:#FF2A6E;" cx="162.822" cy="189.165" r="3.589"/>
      <circle style="fill:#FF2A6E;" cx="173.885" cy="189.165" r="3.191"/>
      <circle style="fill:#FF2A6E;" cx="184.949" cy="189.165" r="2.73"/>
      <path style="fill:#FF2A6E;" d="M196.012,191.404c1.237,0,2.24-1.003,2.24-2.24c0-1.237-1.003-2.24-2.24-2.24 c-1.237,0-2.24,1.003-2.24,2.24C193.773,190.402,194.775,191.404,196.012,191.404z"/>
      <path style="fill:#FF2A6E;" d="M207.076,190.944c0.983,0,1.779-0.797,1.779-1.779s-0.797-1.779-1.779-1.779 c-0.983,0-1.779,0.797-1.779,1.779S206.093,190.944,207.076,190.944z"/>
      <circle style="fill:#FF2A6E;" cx="218.139" cy="189.165" r="1.319"/>
      <path style="fill:#FF2A6E;" d="M229.203,190.085c0.508,0,0.92-0.412,0.92-0.92s-0.412-0.92-0.92-0.92s-0.92,0.412-0.92,0.92 S228.694,190.085,229.203,190.085z"/>
      <circle style="fill:#FF2A6E;" cx="240.266" cy="189.165" r="0.583"/>
      <path style="fill:#FF2A6E;" d="M251.33,189.441c0.152,0,0.276-0.124,0.276-0.276s-0.124-0.276-0.276-0.276 c-0.153,0-0.276,0.124-0.276,0.276S251.177,189.441,251.33,189.441z"/>
      <path style="fill:#FF2A6E;" d="M262.393,189.257c0.051,0,0.092-0.041,0.092-0.092c0-0.051-0.041-0.092-0.092-0.092 c-0.051,0-0.092,0.041-0.092,0.092C262.301,189.215,262.342,189.257,262.393,189.257z"/>
      <path style="fill:#FF2A6E;" d="M24.528,200.29c0.034,0,0.061-0.028,0.061-0.061c0-0.034-0.028-0.061-0.061-0.061 c-0.034,0-0.061,0.027-0.061,0.061C24.466,200.262,24.494,200.29,24.528,200.29z"/>
      <path style="fill:#FF2A6E;" d="M35.591,200.474c0.135,0,0.245-0.11,0.245-0.245c0-0.135-0.11-0.245-0.245-0.245 c-0.136,0-0.245,0.11-0.245,0.245C35.346,200.364,35.456,200.474,35.591,200.474z"/>
      <path style="fill:#FF2A6E;" d="M46.655,200.75c0.288,0,0.521-0.233,0.521-0.522c0-0.288-0.233-0.521-0.521-0.521 c-0.288,0-0.522,0.233-0.522,0.521C46.133,200.516,46.367,200.75,46.655,200.75z"/>
      <path style="fill:#FF2A6E;" d="M57.718,201.057c0.458,0,0.828-0.371,0.828-0.828c0-0.457-0.371-0.828-0.828-0.828 s-0.828,0.371-0.828,0.828C56.89,200.686,57.261,201.057,57.718,201.057z"/>
      <path style="fill:#FF2A6E;" d="M68.782,201.425c0.661,0,1.196-0.536,1.196-1.197s-0.536-1.196-1.196-1.196 c-0.661,0-1.196,0.536-1.196,1.196S68.121,201.425,68.782,201.425z"/>
      <circle style="fill:#FF2A6E;" cx="79.845" cy="200.228" r="1.565"/>
      <path style="fill:#FF2A6E;" d="M90.909,202.192c1.084,0,1.963-0.879,1.963-1.964c0-1.084-0.879-1.963-1.963-1.963 c-1.084,0-1.964,0.879-1.964,1.963C88.945,201.313,89.825,202.192,90.909,202.192z"/>
      <path style="fill:#FF2A6E;" d="M101.972,202.59c1.305,0,2.362-1.058,2.362-2.362c0-1.305-1.058-2.362-2.362-2.362 c-1.305,0-2.362,1.058-2.362,2.362C99.61,201.533,100.668,202.59,101.972,202.59z"/>
      <circle style="fill:#FF2A6E;" cx="113.036" cy="200.228" r="2.73"/>
      <path style="fill:#FF2A6E;" d="M124.099,203.235c1.66,0,3.007-1.346,3.007-3.007c0-1.66-1.346-3.007-3.007-3.007 c-1.66,0-3.007,1.346-3.007,3.007C121.093,201.889,122.439,203.235,124.099,203.235z"/>
      <path style="fill:#FF2A6E;" d="M135.163,203.419c1.762,0,3.19-1.428,3.19-3.191s-1.428-3.191-3.19-3.191 c-1.762,0-3.191,1.428-3.191,3.191S133.401,203.419,135.163,203.419z"/>
      <path style="fill:#FF2A6E;" d="M146.226,203.449c1.779,0,3.221-1.442,3.221-3.221c0-1.779-1.442-3.221-3.221-3.221 c-1.779,0-3.221,1.442-3.221,3.221C143.005,202.007,144.447,203.449,146.226,203.449z"/>
      <path style="fill:#FF2A6E;" d="M157.29,203.388c1.745,0,3.16-1.415,3.16-3.16c0-1.745-1.415-3.16-3.16-3.16 c-1.745,0-3.16,1.415-3.16,3.16C154.13,201.973,155.545,203.388,157.29,203.388z"/>
      <path style="fill:#FF2A6E;" d="M168.353,203.173c1.627,0,2.945-1.319,2.945-2.945c0-1.627-1.319-2.945-2.945-2.945 c-1.626,0-2.945,1.319-2.945,2.945C165.408,201.855,166.727,203.173,168.353,203.173z"/>
      <path style="fill:#FF2A6E;" d="M179.417,202.867c1.457,0,2.638-1.181,2.638-2.638c0-1.457-1.181-2.638-2.638-2.638 c-1.457,0-2.638,1.181-2.638,2.638C176.779,201.685,177.96,202.867,179.417,202.867z"/>
      <path style="fill:#FF2A6E;" d="M190.48,202.468c1.237,0,2.24-1.003,2.24-2.24c0-1.237-1.003-2.24-2.24-2.24 c-1.237,0-2.24,1.003-2.24,2.24C188.241,201.465,189.243,202.468,190.48,202.468z"/>
      <circle style="fill:#FF2A6E;" cx="201.544" cy="200.228" r="1.871"/>
      <circle style="fill:#FF2A6E;" cx="212.607" cy="200.228" r="1.442"/>
      <path style="fill:#FF2A6E;" d="M223.671,201.271c0.576,0,1.043-0.467,1.043-1.043c0-0.576-0.467-1.043-1.043-1.043 c-0.576,0-1.043,0.467-1.043,1.043C222.628,200.804,223.095,201.271,223.671,201.271z"/>
      <circle style="fill:#FF2A6E;" cx="234.734" cy="200.228" r="0.706"/>
      <circle style="fill:#FF2A6E;" cx="245.798" cy="200.228" r="0.43"/>
      <path style="fill:#FF2A6E;" d="M256.861,200.412c0.102,0,0.184-0.082,0.184-0.184c0-0.102-0.082-0.184-0.184-0.184 c-0.102,0-0.184,0.082-0.184,0.184C256.677,200.33,256.76,200.412,256.861,200.412z"/>
      <circle style="fill:#FF2A6E;" cx="267.925" cy="200.228" r="0.031"/>
      <path style="fill:#FF2A6E;" d="M18.996,211.322c0.017,0,0.031-0.014,0.031-0.031c0-0.017-0.014-0.031-0.031-0.031 c-0.017,0-0.031,0.014-0.031,0.031C18.965,211.309,18.979,211.322,18.996,211.322z"/>
      <path style="fill:#FF2A6E;" d="M30.06,211.414c0.068,0,0.123-0.055,0.123-0.123c0-0.068-0.055-0.123-0.123-0.123 c-0.068,0-0.123,0.055-0.123,0.123C29.937,211.359,29.992,211.414,30.06,211.414z"/>
      <path style="fill:#FF2A6E;" d="M41.123,211.629c0.186,0,0.338-0.151,0.338-0.338s-0.151-0.337-0.338-0.337 c-0.186,0-0.337,0.151-0.337,0.337S40.937,211.629,41.123,211.629z"/>
      <path style="fill:#FF2A6E;" d="M52.187,211.905c0.339,0,0.614-0.275,0.614-0.614c0-0.339-0.275-0.614-0.614-0.614 c-0.339,0-0.613,0.275-0.613,0.614C51.573,211.63,51.848,211.905,52.187,211.905z"/>
      <circle style="fill:#FF2A6E;" cx="63.25" cy="211.292" r="0.89"/>
      <path style="fill:#FF2A6E;" d="M74.314,212.519c0.678,0,1.227-0.549,1.227-1.227c0-0.678-0.549-1.227-1.227-1.227 c-0.678,0-1.227,0.549-1.227,1.227C73.087,211.969,73.636,212.519,74.314,212.519z"/>
      <circle style="fill:#FF2A6E;" cx="85.377" cy="211.292" r="1.565"/>
      <circle style="fill:#FF2A6E;" cx="96.441" cy="211.292" r="1.902"/>
      <circle style="fill:#FF2A6E;" cx="107.504" cy="211.292" r="2.148"/>
      <path style="fill:#FF2A6E;" d="M118.568,213.654c1.305,0,2.362-1.058,2.362-2.362c0-1.305-1.058-2.362-2.362-2.362 c-1.305,0-2.362,1.058-2.362,2.362C116.205,212.596,117.263,213.654,118.568,213.654z"/>
      <path style="fill:#FF2A6E;" d="M129.631,213.807c1.389,0,2.516-1.126,2.516-2.516c0-1.389-1.126-2.516-2.516-2.516 c-1.389,0-2.516,1.126-2.516,2.516C127.115,212.681,128.242,213.807,129.631,213.807z"/>
      <path style="fill:#FF2A6E;" d="M140.695,213.838c1.406,0,2.546-1.14,2.546-2.546c0-1.406-1.14-2.546-2.546-2.546 c-1.406,0-2.546,1.14-2.546,2.546C138.148,212.698,139.288,213.838,140.695,213.838z"/>
      <circle style="fill:#FF2A6E;" cx="151.758" cy="211.292" r="2.485"/>
      <circle style="fill:#FF2A6E;" cx="162.822" cy="211.292" r="2.301"/>
      <path style="fill:#FF2A6E;" d="M173.885,213.347c1.135,0,2.055-0.92,2.055-2.056c0-1.135-0.92-2.055-2.055-2.055 c-1.135,0-2.055,0.92-2.055,2.055C171.83,212.427,172.75,213.347,173.885,213.347z"/>
      <path style="fill:#FF2A6E;" d="M184.949,213.071c0.983,0,1.779-0.797,1.779-1.779c0-0.983-0.797-1.779-1.779-1.779 c-0.983,0-1.779,0.797-1.779,1.779C183.169,212.274,183.966,213.071,184.949,213.071z"/>
      <circle style="fill:#FF2A6E;" cx="196.012" cy="211.292" r="1.442"/>
      <circle style="fill:#FF2A6E;" cx="207.076" cy="211.292" r="1.135"/>
      <path style="fill:#FF2A6E;" d="M218.139,212.089c0.441,0,0.798-0.357,0.798-0.798c0-0.44-0.357-0.798-0.798-0.798 c-0.441,0-0.798,0.357-0.798,0.798C217.341,211.732,217.699,212.089,218.139,212.089z"/>
      <path style="fill:#FF2A6E;" d="M229.203,211.813c0.288,0,0.521-0.234,0.521-0.522c0-0.288-0.234-0.521-0.521-0.521 c-0.288,0-0.522,0.234-0.522,0.521C228.681,211.58,228.915,211.813,229.203,211.813z"/>
      <circle style="fill:#FF2A6E;" cx="240.266" cy="211.292" r="0.276"/>
      <path style="fill:#FF2A6E;" d="M251.33,211.384c0.051,0,0.092-0.041,0.092-0.092c0-0.051-0.041-0.092-0.092-0.092 c-0.051,0-0.092,0.041-0.092,0.092C251.238,211.342,251.279,211.384,251.33,211.384z"/>
      <path style="fill:#FF2A6E;" d="M35.591,222.417c0.034,0,0.061-0.027,0.061-0.061s-0.027-0.061-0.061-0.061 s-0.061,0.027-0.061,0.061S35.557,222.417,35.591,222.417z"/>
      <circle style="fill:#FF2A6E;" cx="46.655" cy="222.355" r="0.184"/>
      <circle style="fill:#FF2A6E;" cx="57.718" cy="222.355" r="0.399"/>
      <circle style="fill:#FF2A6E;" cx="68.782" cy="222.355" r="0.614"/>
      <circle style="fill:#FF2A6E;" cx="79.845" cy="222.355" r="0.89"/>
      <circle style="fill:#FF2A6E;" cx="90.909" cy="222.355" r="1.135"/>
      <path style="fill:#FF2A6E;" d="M101.972,223.766c0.779,0,1.411-0.632,1.411-1.411s-0.632-1.411-1.411-1.411 c-0.779,0-1.411,0.632-1.411,1.411S101.193,223.766,101.972,223.766z"/>
      <path style="fill:#FF2A6E;" d="M113.036,223.981c0.898,0,1.626-0.728,1.626-1.626s-0.728-1.626-1.626-1.626 c-0.898,0-1.626,0.728-1.626,1.626S112.138,223.981,113.036,223.981z"/>
      <path style="fill:#FF2A6E;" d="M124.099,224.165c1,0,1.81-0.81,1.81-1.81c0-1-0.81-1.81-1.81-1.81c-1,0-1.81,0.81-1.81,1.81 C122.289,223.355,123.1,224.165,124.099,224.165z"/>
      <path style="fill:#FF2A6E;" d="M135.163,224.257c1.05,0,1.902-0.852,1.902-1.902c0-1.051-0.852-1.902-1.902-1.902 c-1.051,0-1.902,0.852-1.902,1.902C133.261,223.406,134.112,224.257,135.163,224.257z"/>
      <path style="fill:#FF2A6E;" d="M146.226,224.288c1.067,0,1.933-0.865,1.933-1.933c0-1.067-0.865-1.933-1.933-1.933 c-1.067,0-1.933,0.865-1.933,1.933C144.294,223.423,145.159,224.288,146.226,224.288z"/>
      <path style="fill:#FF2A6E;" d="M157.29,224.257c1.051,0,1.902-0.852,1.902-1.902c0-1.051-0.852-1.902-1.902-1.902 c-1.05,0-1.902,0.852-1.902,1.902C155.388,223.406,156.239,224.257,157.29,224.257z"/>
      <path style="fill:#FF2A6E;" d="M168.353,224.104c0.966,0,1.749-0.783,1.749-1.749s-0.783-1.749-1.749-1.749 c-0.966,0-1.749,0.783-1.749,1.749S167.388,224.104,168.353,224.104z"/>
      <circle style="fill:#FF2A6E;" cx="179.417" cy="222.355" r="1.565"/>
      <circle style="fill:#FF2A6E;" cx="190.48" cy="222.355" r="1.319"/>
      <circle style="fill:#FF2A6E;" cx="201.544" cy="222.355" r="1.043"/>
      <path style="fill:#FF2A6E;" d="M212.607,223.153c0.441,0,0.798-0.357,0.798-0.798c0-0.441-0.357-0.798-0.798-0.798 c-0.441,0-0.798,0.357-0.798,0.798C211.81,222.796,212.167,223.153,212.607,223.153z"/>
      <circle style="fill:#FF2A6E;" cx="223.671" cy="222.355" r="0.552"/>
      <circle style="fill:#FF2A6E;" cx="234.734" cy="222.355" r="0.307"/>
      <circle style="fill:#FF2A6E;" cx="245.798" cy="222.355" r="0.123"/>
      <circle style="fill:#FF2A6E;" cx="256.861" cy="222.355" r="0.031"/>
      <path style="fill:#FF2A6E;" d="M41.123,233.48c0.034,0,0.061-0.027,0.061-0.061c0-0.034-0.028-0.061-0.061-0.061 c-0.034,0-0.061,0.027-0.061,0.061C41.062,233.452,41.089,233.48,41.123,233.48z"/>
      <path style="fill:#FF2A6E;" d="M52.187,233.633c0.119,0,0.215-0.096,0.215-0.215c0-0.119-0.096-0.215-0.215-0.215 s-0.215,0.096-0.215,0.215C51.972,233.537,52.068,233.633,52.187,233.633z"/>
      <path style="fill:#FF2A6E;" d="M63.25,233.787c0.203,0,0.368-0.165,0.368-0.368c0-0.203-0.165-0.368-0.368-0.368 c-0.203,0-0.368,0.165-0.368,0.368C62.882,233.622,63.047,233.787,63.25,233.787z"/>
      <circle style="fill:#FF2A6E;" cx="74.314" cy="233.419" r="0.583"/>
      <path style="fill:#FF2A6E;" d="M85.377,234.186c0.424,0,0.767-0.343,0.767-0.767s-0.343-0.767-0.767-0.767 s-0.767,0.343-0.767,0.767S84.953,234.186,85.377,234.186z"/>
      <circle style="fill:#FF2A6E;" cx="96.441" cy="233.419" r="0.982"/>
      <circle style="fill:#FF2A6E;" cx="107.504" cy="233.419" r="1.135"/>
      <circle style="fill:#FF2A6E;" cx="118.568" cy="233.419" r="1.288"/>
      <path style="fill:#FF2A6E;" d="M129.631,234.799c0.762,0,1.38-0.618,1.38-1.381c0-0.762-0.618-1.38-1.38-1.38 c-0.762,0-1.381,0.618-1.381,1.38C128.251,234.181,128.869,234.799,129.631,234.799z"/>
      <path style="fill:#FF2A6E;" d="M140.695,234.799c0.763,0,1.381-0.618,1.381-1.381c0-0.762-0.618-1.38-1.381-1.38 c-0.762,0-1.38,0.618-1.38,1.38C139.314,234.181,139.932,234.799,140.695,234.799z"/>
      <path style="fill:#FF2A6E;" d="M151.758,234.768c0.745,0,1.35-0.604,1.35-1.35s-0.604-1.35-1.35-1.35s-1.35,0.604-1.35,1.35 S151.013,234.768,151.758,234.768z"/>
      <circle style="fill:#FF2A6E;" cx="162.822" cy="233.419" r="1.258"/>
      <circle style="fill:#FF2A6E;" cx="173.885" cy="233.419" r="1.104"/>
      <path style="fill:#FF2A6E;" d="M184.949,234.339c0.508,0,0.92-0.412,0.92-0.92s-0.412-0.92-0.92-0.92 c-0.508,0-0.92,0.412-0.92,0.92S184.44,234.339,184.949,234.339z"/>
      <circle style="fill:#FF2A6E;" cx="196.012" cy="233.419" r="0.706"/>
      <path style="fill:#FF2A6E;" d="M207.076,233.94c0.288,0,0.521-0.234,0.521-0.522c0-0.288-0.234-0.521-0.521-0.521 c-0.288,0-0.522,0.234-0.522,0.521C206.554,233.707,206.788,233.94,207.076,233.94z"/>
      <circle style="fill:#FF2A6E;" cx="218.139" cy="233.419" r="0.307"/>
      <circle style="fill:#FF2A6E;" cx="229.203" cy="233.419" r="0.153"/>
      <path style="fill:#FF2A6E;" d="M240.266,233.449c0.017,0,0.031-0.014,0.031-0.031c0-0.017-0.014-0.031-0.031-0.031 c-0.017,0-0.031,0.014-0.031,0.031C240.235,233.436,240.249,233.449,240.266,233.449z"/>
      <path style="fill:#FF2A6E;" d="M57.718,244.544c0.034,0,0.061-0.027,0.061-0.061s-0.027-0.061-0.061-0.061 c-0.034,0-0.061,0.027-0.061,0.061S57.685,244.544,57.718,244.544z"/>
      <circle style="fill:#FF2A6E;" cx="68.782" cy="244.482" r="0.184"/>
      <circle style="fill:#FF2A6E;" cx="79.845" cy="244.482" r="0.307"/>
      <circle style="fill:#FF2A6E;" cx="90.909" cy="244.482" r="0.46"/>
      <path style="fill:#FF2A6E;" d="M101.972,245.096c0.339,0,0.614-0.275,0.614-0.614s-0.275-0.614-0.614-0.614 c-0.339,0-0.614,0.275-0.614,0.614S101.633,245.096,101.972,245.096z"/>
      <circle style="fill:#FF2A6E;" cx="113.036" cy="244.482" r="0.736"/>
      <path style="fill:#FF2A6E;" d="M124.099,245.31c0.457,0,0.828-0.371,0.828-0.828s-0.371-0.828-0.828-0.828 c-0.458,0-0.828,0.371-0.828,0.828S123.642,245.31,124.099,245.31z"/>
      <path style="fill:#FF2A6E;" d="M135.163,245.372c0.491,0,0.89-0.398,0.89-0.89c0-0.491-0.398-0.89-0.89-0.89 c-0.491,0-0.89,0.398-0.89,0.89C134.273,244.973,134.671,245.372,135.163,245.372z"/>
      <path style="fill:#FF2A6E;" d="M146.226,245.402c0.508,0,0.92-0.412,0.92-0.92s-0.412-0.92-0.92-0.92s-0.92,0.412-0.92,0.92 S145.718,245.402,146.226,245.402z"/>
      <path style="fill:#FF2A6E;" d="M157.29,245.372c0.491,0,0.89-0.398,0.89-0.89c0-0.491-0.398-0.89-0.89-0.89 c-0.491,0-0.89,0.398-0.89,0.89C156.4,244.973,156.798,245.372,157.29,245.372z"/>
      <path style="fill:#FF2A6E;" d="M168.353,245.31c0.458,0,0.828-0.371,0.828-0.828s-0.371-0.828-0.828-0.828 c-0.457,0-0.828,0.371-0.828,0.828S167.896,245.31,168.353,245.31z"/>
      <circle style="fill:#FF2A6E;" cx="179.417" cy="244.482" r="0.706"/>
      <circle style="fill:#FF2A6E;" cx="190.48" cy="244.482" r="0.583"/>
      <circle style="fill:#FF2A6E;" cx="201.544" cy="244.482" r="0.43"/>
      <circle style="fill:#FF2A6E;" cx="212.607" cy="244.482" r="0.276"/>
      <circle style="fill:#FF2A6E;" cx="223.671" cy="244.482" r="0.123"/>
      <circle style="fill:#FF2A6E;" cx="234.734" cy="244.482" r="0.031"/>
      <path style="fill:#FF2A6E;" d="M63.25,255.576c0.017,0,0.031-0.014,0.031-0.031c0-0.017-0.014-0.031-0.031-0.031 c-0.017,0-0.031,0.014-0.031,0.031C63.22,255.563,63.233,255.576,63.25,255.576z"/>
      <circle style="fill:#FF2A6E;" cx="74.314" cy="255.546" r="0.123"/>
      <path style="fill:#FF2A6E;" d="M85.377,255.76c0.119,0,0.215-0.096,0.215-0.215c0-0.119-0.096-0.215-0.215-0.215 s-0.215,0.096-0.215,0.215C85.162,255.664,85.258,255.76,85.377,255.76z"/>
      <circle style="fill:#FF2A6E;" cx="96.441" cy="255.546" r="0.307"/>
      <circle style="fill:#FF2A6E;" cx="107.504" cy="255.546" r="0.399"/>
      <circle style="fill:#FF2A6E;" cx="118.568" cy="255.546" r="0.491"/>
      <circle style="fill:#FF2A6E;" cx="129.631" cy="255.546" r="0.521"/>
      <circle style="fill:#FF2A6E;" cx="140.695" cy="255.546" r="0.521"/>
      <circle style="fill:#FF2A6E;" cx="151.758" cy="255.546" r="0.521"/>
      <circle style="fill:#FF2A6E;" cx="162.822" cy="255.546" r="0.46"/>
      <path style="fill:#FF2A6E;" d="M173.885,255.914c0.203,0,0.368-0.165,0.368-0.368c0-0.203-0.165-0.368-0.368-0.368 c-0.203,0-0.368,0.165-0.368,0.368C173.517,255.749,173.682,255.914,173.885,255.914z"/>
      <circle style="fill:#FF2A6E;" cx="184.949" cy="255.546" r="0.276"/>
      <circle style="fill:#FF2A6E;" cx="196.012" cy="255.546" r="0.184"/>
      <path style="fill:#FF2A6E;" d="M207.076,255.638c0.051,0,0.092-0.041,0.092-0.092c0-0.051-0.041-0.092-0.092-0.092 c-0.051,0-0.092,0.041-0.092,0.092C206.984,255.596,207.025,255.638,207.076,255.638z"/>
      <path style="fill:#FF2A6E;" d="M218.139,255.576c0.017,0,0.031-0.014,0.031-0.031c0-0.017-0.014-0.031-0.031-0.031 c-0.017,0-0.031,0.014-0.031,0.031C218.108,255.563,218.122,255.576,218.139,255.576z"/>
      <path style="fill:#FF2A6E;" d="M90.909,266.671c0.034,0,0.061-0.027,0.061-0.061s-0.027-0.061-0.061-0.061 c-0.034,0-0.061,0.027-0.061,0.061S90.875,266.671,90.909,266.671z"/>
      <path style="fill:#FF2A6E;" d="M101.972,266.701c0.051,0,0.092-0.041,0.092-0.092s-0.041-0.092-0.092-0.092 c-0.051,0-0.092,0.041-0.092,0.092S101.922,266.701,101.972,266.701z"/>
      <circle style="fill:#FF2A6E;" cx="113.036" cy="266.609" r="0.153"/>
      <path style="fill:#FF2A6E;" d="M124.099,266.824c0.119,0,0.215-0.096,0.215-0.215s-0.096-0.215-0.215-0.215 c-0.119,0-0.215,0.096-0.215,0.215S123.981,266.824,124.099,266.824z"/>
      <path style="fill:#FF2A6E;" d="M135.163,266.854c0.135,0,0.245-0.11,0.245-0.245s-0.11-0.245-0.245-0.245 c-0.136,0-0.245,0.11-0.245,0.245S135.027,266.854,135.163,266.854z"/>
      <path style="fill:#FF2A6E;" d="M146.226,266.854c0.136,0,0.245-0.11,0.245-0.245s-0.11-0.245-0.245-0.245 c-0.135,0-0.245,0.11-0.245,0.245S146.091,266.854,146.226,266.854z"/>
      <path style="fill:#FF2A6E;" d="M157.29,266.824c0.119,0,0.215-0.096,0.215-0.215s-0.096-0.215-0.215-0.215 c-0.119,0-0.215,0.096-0.215,0.215S157.171,266.824,157.29,266.824z"/>
      <path style="fill:#FF2A6E;" d="M168.353,266.793c0.102,0,0.184-0.082,0.184-0.184c0-0.102-0.082-0.184-0.184-0.184 c-0.102,0-0.184,0.082-0.184,0.184C168.169,266.711,168.252,266.793,168.353,266.793z"/>
      <circle style="fill:#FF2A6E;" cx="179.417" cy="266.609" r="0.123"/>
      <path style="fill:#FF2A6E;" d="M190.48,266.701c0.051,0,0.092-0.041,0.092-0.092s-0.041-0.092-0.092-0.092 c-0.051,0-0.092,0.041-0.092,0.092S190.43,266.701,190.48,266.701z"/>
      <circle style="fill:#FF2A6E;" cx="201.544" cy="266.609" r="0.031"/>
      <circle style="fill:#FF2A6E;" cx="107.504" cy="277.673" r="0.031"/>
      <circle style="fill:#FF2A6E;" cx="118.568" cy="277.673" r="0.031"/>
      <circle style="fill:#FF2A6E;" cx="129.631" cy="277.673" r="0.061"/>
      <circle style="fill:#FF2A6E;" cx="140.695" cy="277.673" r="0.061"/>
      <circle style="fill:#FF2A6E;" cx="151.758" cy="277.673" r="0.031"/>
      <circle style="fill:#FF2A6E;" cx="162.822" cy="277.673" r="0.031"/>
    </g>
    <g>
      <path style="fill:#003E61;" d="M243.133,126.59c-48.295,0.344-43.742-19.911-17.953-40.657 c-27.378,13.733-51.268,7.674-48.386-17.537c-9.594,19.543-45.784,20.588-59.491-6.086c4.171,24.966-4.785,29.24-33.185,13.36 c15.678,19.446,15.704,31.288-15.116,23.577c18.155,13.342,26.528,39.701-21.79,49.81c27.68,3.782,54.562,13.722,22.63,40.296 c25.914-8.94,52.424,11.599,50.081,34.895c7.997-18.129,39.58-33.417,66.171-0.207c-7.517-19.109-2.85-41.599,28.507-19.98 c-22.626-27.061-6.876-38.249,27.557-32.719C208.268,158.91,201.21,139.845,243.133,126.59z"/>
    </g>
    <path style="fill:#FF2A6E;" d="M231.223,128.068c-42.423,0.313-38.424-18.148-15.77-37.056 c-24.05,12.517-45.035,6.994-42.503-15.984c-8.428,17.813-40.218,18.764-52.258-5.547c3.664,22.755-4.203,26.65-29.15,12.176 c13.772,17.723,13.795,28.517-13.278,21.489c15.948,12.16,23.303,36.184-19.141,45.399c24.315,3.447,47.929,12.506,19.879,36.727 c22.764-8.148,46.051,10.572,43.992,31.804c7.025-16.523,34.769-30.458,58.127-0.189c-6.603-17.416-2.504-37.914,25.041-18.21 c-19.875-24.664-6.04-34.861,24.206-29.821C200.597,157.525,194.397,140.149,231.223,128.068z"/>
    <path style="fill:#F5F5F5;" d="M216.216,130.425c-35.025,0.265-31.723-15.336-13.02-31.315 c-19.856,10.578-37.181,5.91-35.091-13.507c-6.958,15.053-33.204,15.857-43.144-4.688c3.025,19.229-3.47,22.521-24.066,10.29 c11.37,14.977,11.389,24.099-10.963,18.159c13.167,10.276,19.239,30.578-15.803,38.365c20.075,2.913,39.57,10.569,16.412,31.037 c18.794-6.886,38.02,8.934,36.32,26.876c5.8-13.963,28.705-25.738,47.99-0.16c-5.452-14.718-2.067-32.04,20.674-15.389 c-16.409-20.843-4.987-29.46,19.985-25.201C190.931,155.318,185.813,140.634,216.216,130.425z"/>
    <g style="opacity:0.2;">
      <path style="fill:#003E61;" d="M202.464,131.928c-6.094-1.412-9.263-2.067-15.415-3.182l-2.599-0.471l-0.191,2.527l-1.169-0.655 c-0.972-0.544-2.022-1.037-3.123-1.466c-1.069-0.416-2.182-0.792-3.309-1.117c-1.135-0.327-2.295-0.605-3.45-0.826 c-1.131-0.216-2.252-0.395-3.329-0.531c-2.559-0.324-5.079-0.276-7.486,0.146c-2.477,0.433-4.717,1.247-6.658,2.419 c-0.865,0.522-1.645,1.13-2.365,1.792c0.064-0.841,0.122-1.674,0.192-2.523l0.198-2.399l-2.4-0.171 c-9.773-0.697-19.706-0.908-29.507-0.621l-2.449,0.071l0.136,2.332c-4.215-0.129-7.145-0.152-12.15-0.118l-1.484,0.01 l-0.644,1.338c-1.546,3.214-2.619,5.518-3.726,8.048c-0.725-2.066-1.441-4.08-2.443-6.875l-0.713-1.99l-2.061,0.474 c-6.328,1.457-9.577,2.306-15.801,4.13l-3.032,0.888l1.691,2.669c5.316,8.392,7.858,12.564,12.708,20.865 c1.167,7.327,1.778,11.137,2.985,18.617l0.408,2.525l2.489-0.589c5.106-1.207,7.61-1.738,12.762-2.704l2.137-0.401l-0.208-2.165 c-0.695-7.258-1.045-10.995-1.683-18.011c2.871-5.545,6.023-10.957,9.384-16.189c0.614,10.365,1.249,20.787,1.895,31.104 l0.162,2.603l2.578-0.401c9.476-1.473,14.129-1.988,23.708-2.626l2.124-0.141l0.096-2.126c0.006-0.138,0.016-0.274,0.022-0.411 c0.709,0.288,1.498,0.592,2.406,0.925c1.062,0.389,2.19,0.761,3.353,1.106c1.17,0.347,2.341,0.641,3.478,0.875 c1.227,0.253,2.388,0.385,3.448,0.392c0.22,0.001,0.44,0.001,0.658-0.002c2.293-0.031,4.511-0.301,6.605-0.804 c2.344-0.562,4.48-1.436,6.347-2.597c1.328-0.825,2.496-1.822,3.514-2.954c-0.096,0.339-0.175,0.683-0.219,1.038 c-0.134,1.082-0.019,2.135,0.342,3.128c0.342,0.939,0.866,1.787,1.559,2.523c0.669,0.708,1.479,1.294,2.41,1.739 c0.919,0.44,1.941,0.712,3.04,0.809c0.321,0.028,0.641,0.04,0.959,0.036c0.728-0.01,1.447-0.105,2.145-0.283 c0.989-0.253,1.902-0.647,2.712-1.168c0.835-0.536,1.555-1.2,2.138-1.973c0.648-0.857,1.066-1.826,1.245-2.879v-0.003 c0.179-1.059,0.093-2.111-0.255-3.128c-0.25-0.73-0.609-1.409-1.073-2.026l1.477,0.219l0.55-2.049 c2.583-9.629,3.884-14.298,6.629-23.792l0.698-2.412L202.464,131.928z M184.046,133.629c-0.404,5.333-0.712,9.302-1.074,13.787 c-0.353-0.604-0.761-1.178-1.238-1.71c-0.118-0.131-0.239-0.259-0.363-0.385l0.043,0.018l0.616-2.777 C182.833,138.935,183.277,136.967,184.046,133.629z M150.252,151.907l-1.249,0.01c-0.391,0.003-0.745,0.006-1.077,0.01 l0.111-1.673c0.223-3.372,0.339-5.054,0.578-8.413l0.118-1.659c0.094-0.001,0.203-0.001,0.299-0.002 c-0.001,0.052-0.005,0.102-0.006,0.154c-0.016,1.842,0.315,3.599,0.984,5.222c0.657,1.595,1.589,3.006,2.773,4.19l-2.097-1.177 L150.252,151.907z M182.969,159.093c0.027-0.058,0.049-0.117,0.075-0.175l0.104,0.011 C183.084,158.979,183.032,159.041,182.969,159.093z"/>
    </g>
    <g>
      <g>
        <g>
          <g>
            <path style="fill:#00304D;" d="M94.698,174.019l-0.392-2.658c-1.163-7.875-1.751-11.886-2.872-19.601 c-4.973-8.785-7.585-13.205-13.054-22.101l-1.738-2.828l3.198-0.89c6.563-1.827,9.989-2.673,16.66-4.114l2.171-0.469 l0.721,2.101c1.01,2.945,1.734,5.069,2.468,7.257c1.198-2.64,2.358-5.046,4.029-8.402l0.695-1.396l1.56,0.01 c6.414,0.043,9.731,0.137,16.135,0.456l4.597,0.229l-2.694,3.731c-5.434,7.525-10.432,15.535-14.864,23.817 c0.571,7.38,0.885,11.311,1.513,18.946l0.188,2.277l-2.252,0.391c-5.426,0.941-8.065,1.463-13.445,2.659L94.698,174.019z M84.38,129.878c4.457,7.289,7.042,11.706,11.636,19.827l0.231,0.408l0.067,0.464c1.029,7.084,1.608,11.039,2.546,17.402 c3.162-0.684,5.549-1.153,8.799-1.733c-0.529-6.452-0.838-10.351-1.385-17.424l-0.056-0.723l0.34-0.641 c3.899-7.347,8.235-14.489,12.921-21.288c-3.314-0.135-5.991-0.195-9.811-0.229c-2.311,4.676-3.576,7.445-5.837,12.723 l-2.604,6.079l-2.068-6.281c-1.519-4.613-2.385-7.2-3.778-11.274C91.188,128.113,88.313,128.814,84.38,129.878z"/>
          </g>
        </g>
        <linearGradient id="SVGID_1_" gradientUnits="userSpaceOnUse" x1="103.7776" y1="122.8331" x2="90.2518" y2="170.6125">
          <stop offset="0.0108" style="stop-color:#FFCC00"/>
          <stop offset="0.159" style="stop-color:#FEBA0E"/>
          <stop offset="0.4572" style="stop-color:#FD8B31"/>
          <stop offset="0.8742" style="stop-color:#FA3F69"/>
          <stop offset="1" style="stop-color:#F9277B"/>
        </linearGradient>
        <path style="fill:url(#SVGID_1_);" d="M124.874,123.163c-5.638,7.808-10.871,16.241-15.386,24.747 c0.607,7.861,0.922,11.798,1.57,19.684c-5.446,0.945-8.16,1.482-13.56,2.682c-1.185-8.029-1.773-12.041-2.938-20.059 c-5.057-8.94-7.721-13.461-13.33-22.587c6.551-1.823,9.858-2.64,16.517-4.078c1.848,5.385,2.75,8.066,4.509,13.409 c2.494-5.823,3.814-8.675,6.59-14.251C115.276,122.753,118.483,122.844,124.874,123.163z"/>
      </g>
      <g>
        <g>
          <g>
            <path style="fill:#00304D;" d="M123.088,167.73l-0.134-2.737c-0.71-14.481-1.397-29.166-2.042-43.647l-0.114-2.571l2.573-0.04 c10.301-0.16,20.727,0.202,30.991,1.072l2.52,0.214l-0.243,2.518c-0.168,1.744-0.324,3.472-0.466,5.182 c-0.143,1.717-0.322,3.502-0.531,5.304l-0.259,2.229l-2.244-0.018c-0.615-0.005-1.195-0.009-1.747-0.012l-0.147,1.741 c-0.298,3.525-0.444,5.291-0.727,8.83l-0.141,1.755c0.348,0.002,0.72,0.003,1.131,0.005l2.675,0.015l-0.196,2.668 c-0.152,2.079-0.306,4.146-0.463,6.201c-0.155,2.038-0.294,4.083-0.415,6.134l-0.131,2.231l-2.232,0.118 c-10.079,0.534-14.974,1.009-24.944,2.421L123.088,167.73z M126.022,123.706c0.57,12.723,1.172,25.586,1.793,38.311 c7.642-1.043,12.602-1.518,20.442-1.964c0.087-1.333,0.181-2.665,0.282-3.993c0.089-1.166,0.177-2.336,0.264-3.51 c-0.797,0.003-1.594,0.009-2.656,0.021c-3.026,0.035-4.5,0.07-7.509,0.178l-2.707,0.097l0.418-9.248l2.254-0.125 c2.892-0.161,4.699-0.244,7.109-0.316c0.114-1.415,0.212-2.605,0.327-3.977c-2.244-0.054-3.983-0.07-6.78-0.072l-2.66-0.002 l0.548-8.59l2.257-0.083c4.662-0.17,7.407-0.224,11.513-0.21c0.102-0.988,0.192-1.963,0.272-2.916 c0.075-0.902,0.153-1.808,0.236-2.719C142.998,123.944,134.482,123.648,126.022,123.706z"/>
          </g>
        </g>
        <linearGradient id="SVGID_00000147205817477693209020000006534200117961255040_" gradientUnits="userSpaceOnUse" x1="142.7552" y1="123.3634" x2="130.2568" y2="167.5137">
          <stop offset="0.0108" style="stop-color:#FFCC00"/>
          <stop offset="0.159" style="stop-color:#FEBA0E"/>
          <stop offset="0.4572" style="stop-color:#FD8B31"/>
          <stop offset="0.8742" style="stop-color:#FA3F69"/>
          <stop offset="1" style="stop-color:#F9277B"/>
        </linearGradient>
        <path style="fill:url(#SVGID_00000147205817477693209020000006534200117961255040_);" d="M154.87,121.579 c-0.17,1.755-0.326,3.494-0.469,5.215c-0.143,1.722-0.318,3.463-0.523,5.222c-5.47-0.044-8.204-0.005-13.662,0.195 c-0.095,1.469-0.142,2.205-0.235,3.676c3.798,0.003,5.696,0.033,9.491,0.147c-0.299,3.53-0.444,5.298-0.727,8.842 c-3.717,0.092-5.574,0.167-9.283,0.373c-0.079,1.711-0.118,2.568-0.194,4.282c3.027-0.109,4.541-0.144,7.57-0.179 c2.15-0.025,3.225-0.028,5.375-0.016c-0.152,2.077-0.306,4.141-0.462,6.194s-0.296,4.112-0.417,6.177 c-10.117,0.535-15.159,1.026-25.163,2.443c-0.713-14.544-1.394-29.089-2.042-43.635 C134.332,120.358,144.702,120.717,154.87,121.579z"/>
      </g>
      <g>
        <g>
          <g>
            <path style="fill:#00304D;" d="M167.112,165.793c-0.23,0-0.461-0.002-0.693-0.007c-1.116-0.022-2.333-0.177-3.618-0.46 c-1.194-0.263-2.419-0.588-3.641-0.969c-1.216-0.378-2.396-0.785-3.507-1.209c-1.154-0.441-2.129-0.835-2.984-1.206 l-1.733-0.752l0.251-1.874c0.624-4.654,0.946-6.973,1.61-11.591l0.526-3.661l2.187,1.266c-1.228-1.264-2.188-2.759-2.854-4.442 c-0.679-1.714-1.002-3.564-0.96-5.499c0.06-2.695,0.757-5.1,2.073-7.147c1.292-2.011,3.021-3.661,5.141-4.903 c2.057-1.205,4.422-2.028,7.03-2.447c2.536-0.409,5.182-0.424,7.866-0.047c1.128,0.158,2.303,0.362,3.491,0.605 c1.21,0.248,2.425,0.557,3.612,0.917c1.18,0.358,2.344,0.768,3.46,1.22c1.152,0.467,2.248,1,3.26,1.584l1.624,0.938 l-0.446,1.821c-1.003,4.091-1.497,6.146-2.469,10.27l-0.686,2.909l-0.044-0.02c0.129,0.134,0.254,0.271,0.375,0.41 c1.068,1.222,1.833,2.63,2.274,4.185c0.431,1.515,0.537,3.146,0.317,4.848l0,0c-0.351,2.704-1.244,5.092-2.656,7.097 c-1.358,1.929-3.091,3.536-5.151,4.778c-1.978,1.192-4.234,2.08-6.705,2.637C171.856,165.542,169.522,165.793,167.112,165.793z M156.4,158.074c0.327,0.129,0.672,0.264,1.038,0.403c1.012,0.387,2.092,0.759,3.209,1.106c1.087,0.338,2.174,0.628,3.23,0.86 c0.966,0.213,1.854,0.329,2.643,0.344c2.248,0.044,4.417-0.164,6.44-0.621c1.948-0.44,3.706-1.127,5.226-2.043 c1.483-0.894,2.674-1.997,3.643-3.373c0.953-1.354,1.537-2.944,1.786-4.862c0.135-1.039,0.08-1.968-0.168-2.839 c-0.242-0.851-0.645-1.591-1.23-2.262c-0.626-0.716-1.451-1.345-2.453-1.87c-0.95-0.497-2.218-0.902-3.771-1.204 c-0.265-0.051-0.621-0.111-1.049-0.151c-0.55-0.052-1.141-0.116-1.775-0.193c-0.664-0.08-1.333-0.183-2.005-0.309 c-0.753-0.142-1.453-0.329-2.081-0.557c-0.803-0.292-1.485-0.682-2.03-1.161c-0.854-0.749-1.32-1.784-1.31-2.91 c0.009-1.037,0.432-1.99,1.19-2.685c0.538-0.491,1.196-0.852,1.961-1.074c0.567-0.163,1.186-0.269,1.848-0.319 c0.564-0.044,1.138-0.061,1.704-0.05c0.556,0.011,1.08,0.04,1.579,0.088c0.462,0.044,0.841,0.084,1.133,0.119 c1.65,0.197,3.352,0.564,5.055,1.09c0.65,0.201,1.291,0.415,1.922,0.64c0.462-1.945,0.847-3.541,1.348-5.594 c-0.323-0.15-0.654-0.292-0.991-0.429c-0.976-0.395-1.997-0.755-3.035-1.07c-1.041-0.315-2.106-0.586-3.165-0.804 c-1.084-0.222-2.155-0.408-3.18-0.552c-2.19-0.307-4.335-0.296-6.377,0.033c-1.995,0.321-3.777,0.935-5.297,1.824 c-1.453,0.852-2.586,1.929-3.461,3.292c-0.823,1.28-1.242,2.769-1.281,4.554c-0.028,1.264,0.178,2.458,0.61,3.55 c0.434,1.096,1.029,2.021,1.82,2.828c0.792,0.808,1.732,1.441,2.879,1.939c1.154,0.501,2.445,0.788,3.944,0.878l0.995,0.062 c0.473,0.03,0.98,0.083,1.522,0.161c0.544,0.079,1.102,0.186,1.659,0.319c0.654,0.155,1.259,0.365,1.797,0.623 c0.688,0.33,1.264,0.759,1.714,1.277c0.661,0.757,0.983,1.731,0.902,2.737c-0.104,1.265-0.716,2.328-1.725,2.996 c-0.632,0.42-1.372,0.719-2.198,0.885c-0.676,0.136-1.393,0.19-2.104,0.195c-0.591-0.005-1.096-0.019-1.511-0.041 c-2.208-0.119-4.455-0.484-6.682-1.086c-1.057-0.285-2.076-0.623-3.052-1.01C156.964,153.942,156.716,155.732,156.4,158.074z M170.352,135.587L170.352,135.587L170.352,135.587z"/>
          </g>
        </g>
        <linearGradient id="SVGID_00000109734427719697163570000009909936339596748215_" gradientUnits="userSpaceOnUse" x1="175.0701" y1="126.7997" x2="164.475" y2="164.2266">
          <stop offset="0.0108" style="stop-color:#FFCC00"/>
          <stop offset="0.159" style="stop-color:#FEBA0E"/>
          <stop offset="0.4572" style="stop-color:#FD8B31"/>
          <stop offset="0.8742" style="stop-color:#FA3F69"/>
          <stop offset="1" style="stop-color:#F9277B"/>
        </linearGradient>
        <path style="fill:url(#SVGID_00000109734427719697163570000009909936339596748215_);" d="M186.814,149.489 c-0.303,2.336-1.052,4.318-2.221,5.98c-1.17,1.662-2.636,3.015-4.397,4.075c-1.76,1.061-3.747,1.839-5.965,2.34 c-2.219,0.501-4.561,0.731-7.041,0.682c-0.957-0.019-1.999-0.153-3.129-0.402c-1.131-0.249-2.275-0.553-3.436-0.915 c-1.16-0.361-2.28-0.746-3.359-1.158c-1.078-0.412-2.039-0.799-2.879-1.163c0.623-4.645,0.944-6.959,1.606-11.569 c1.716,0.994,3.613,1.764,5.697,2.326c2.084,0.563,4.133,0.893,6.163,1.003c0.385,0.021,0.852,0.033,1.403,0.038 c0.55,0.005,1.077-0.044,1.585-0.146c0.508-0.103,0.945-0.275,1.312-0.519c0.367-0.243,0.572-0.613,0.613-1.112 c0.028-0.338-0.071-0.638-0.298-0.897c-0.226-0.259-0.529-0.481-0.906-0.661c-0.378-0.181-0.811-0.33-1.298-0.446 c-0.487-0.116-0.965-0.208-1.435-0.276c-0.471-0.067-0.912-0.115-1.323-0.14c-0.411-0.026-0.74-0.046-0.987-0.061 c-1.768-0.106-3.361-0.46-4.791-1.081c-1.429-0.62-2.651-1.444-3.668-2.482c-1.018-1.038-1.805-2.256-2.359-3.657 c-0.555-1.401-0.82-2.911-0.785-4.525c0.048-2.214,0.599-4.173,1.677-5.85c1.076-1.676,2.509-3.048,4.302-4.099 c1.793-1.05,3.851-1.764,6.162-2.136c2.312-0.372,4.692-0.381,7.122-0.04c1.083,0.152,2.194,0.345,3.336,0.579 c1.141,0.234,2.271,0.521,3.388,0.86c1.117,0.339,2.2,0.721,3.248,1.145c1.047,0.424,2.03,0.902,2.947,1.432 c-1.005,4.099-1.499,6.157-2.474,10.29c-1.395-0.605-2.872-1.15-4.43-1.633c-1.559-0.482-3.099-0.816-4.614-0.997 c-0.277-0.033-0.636-0.071-1.074-0.113c-0.439-0.042-0.9-0.068-1.385-0.077c-0.484-0.009-0.975,0.005-1.473,0.043 c-0.499,0.038-0.944,0.114-1.339,0.227c-0.395,0.114-0.719,0.288-0.969,0.517c-0.251,0.23-0.376,0.52-0.379,0.863 c-0.003,0.397,0.149,0.736,0.461,1.01c0.311,0.274,0.721,0.503,1.23,0.687c0.508,0.184,1.072,0.334,1.691,0.45 c0.618,0.116,1.233,0.211,1.844,0.284c0.612,0.074,1.181,0.136,1.709,0.185c0.527,0.049,0.966,0.122,1.293,0.186 c1.628,0.317,3.165,0.769,4.453,1.444c1.289,0.675,2.348,1.491,3.176,2.44s1.412,2.024,1.753,3.224 C186.912,146.846,186.99,148.125,186.814,149.489z"/>
      </g>
      <g>
        <g>
          <g>
            <path style="fill:#00304D;" d="M192.869,169.208c-0.334,0-0.67-0.017-1.007-0.051c-1.154-0.118-2.225-0.418-3.184-0.894 c-0.97-0.481-1.814-1.108-2.506-1.863c-0.717-0.781-1.256-1.68-1.601-2.671c-0.365-1.046-0.472-2.153-0.316-3.289 c0.152-1.108,0.548-2.146,1.178-3.085c0.504-0.753,1.125-1.405,1.848-1.947l-1.169-0.146l0.234-2.42 c1.043-10.789,1.532-16.06,2.492-26.856l0.246-2.765l2.724,0.532c6.447,1.259,9.768,1.992,16.15,3.562l2.562,0.63l-0.767,2.524 c-3.018,9.931-4.452,14.818-7.303,24.901l-0.607,2.145l-1.549-0.251c0.477,0.654,0.846,1.372,1.099,2.143 c0.352,1.078,0.426,2.185,0.223,3.293v0.001c-0.203,1.105-0.657,2.116-1.348,3.007c-0.624,0.803-1.389,1.49-2.273,2.042 c-0.86,0.537-1.825,0.938-2.867,1.189C194.39,169.119,193.634,169.208,192.869,169.208z M192.773,158.613 c-0.328,0-0.642,0.036-0.947,0.107c-0.524,0.123-0.974,0.309-1.372,0.567c-0.354,0.23-0.639,0.509-0.87,0.854 c-0.205,0.306-0.328,0.625-0.376,0.978c-0.048,0.351-0.021,0.666,0.083,0.965c0.122,0.35,0.306,0.656,0.564,0.936 c0.279,0.304,0.62,0.554,1.043,0.763c0.426,0.211,0.906,0.342,1.467,0.399c0.552,0.057,1.071,0.022,1.585-0.102 c0.519-0.126,0.988-0.317,1.393-0.57c0.39-0.243,0.707-0.526,0.972-0.867c0.2-0.258,0.321-0.526,0.379-0.843 c0.053-0.289,0.034-0.555-0.058-0.838c-0.116-0.355-0.298-0.669-0.554-0.958c-0.29-0.326-0.669-0.618-1.126-0.867 c-0.449-0.243-0.942-0.399-1.504-0.476C193.219,158.629,192.993,158.613,192.773,158.613z M191.555,150.91 c2.399,0.313,4.27,0.582,6.687,0.963c2.24-7.894,3.633-12.649,5.958-20.325c-3.922-0.947-6.702-1.561-10.629-2.347 C192.833,137.46,192.359,142.563,191.555,150.91z"/>
          </g>
        </g>
        <linearGradient id="SVGID_00000170988941222750928690000009592112193839091882_" gradientUnits="userSpaceOnUse" x1="199.5516" y1="130.8648" x2="189.3546" y2="166.8854">
          <stop offset="0.0108" style="stop-color:#FFCC00"/>
          <stop offset="0.159" style="stop-color:#FEBA0E"/>
          <stop offset="0.4572" style="stop-color:#FD8B31"/>
          <stop offset="0.8742" style="stop-color:#FA3F69"/>
          <stop offset="1" style="stop-color:#F9277B"/>
        </linearGradient>
        <path style="fill:url(#SVGID_00000170988941222750928690000009592112193839091882_);" d="M208.079,129.025 c-3.003,9.881-4.467,14.871-7.317,24.948c-4.475-0.726-6.718-1.048-11.209-1.609c1.036-10.709,1.535-16.084,2.494-26.875 C198.49,126.747,201.698,127.454,208.079,129.025z M199.875,161.532c-0.131,0.713-0.419,1.353-0.863,1.925 c-0.446,0.573-0.986,1.057-1.622,1.454c-0.637,0.398-1.348,0.691-2.13,0.88c-0.785,0.189-1.592,0.243-2.425,0.158 c-0.854-0.087-1.628-0.3-2.324-0.646c-0.697-0.345-1.288-0.782-1.775-1.313c-0.486-0.53-0.848-1.131-1.083-1.804 c-0.234-0.672-0.303-1.382-0.201-2.127c0.1-0.728,0.358-1.407,0.777-2.031c0.419-0.624,0.948-1.145,1.585-1.559 c0.638-0.414,1.36-0.715,2.164-0.904c0.804-0.188,1.649-0.222,2.532-0.102c0.862,0.117,1.65,0.371,2.365,0.758 c0.712,0.387,1.313,0.856,1.799,1.403c0.485,0.547,0.839,1.161,1.062,1.843C199.958,160.148,200.003,160.836,199.875,161.532z"/>
      </g>
    </g>
  </g>
</svg>